<?xml version="1.0" encoding="UTF-8" standalone="no"?>
<!-- Created with Inkscape (http://www.inkscape.org/) -->

<svg
   width="210mm"
   height="297mm"
   viewBox="0 0 210 297"
   version="1.1"
   id="svg1"
   inkscape:version="1.3.2 (091e20e, 2023-11-25, custom)"
   sodipodi:docname="water pump front sticker.svg"
   xmlns:inkscape="http://www.inkscape.org/namespaces/inkscape"
   xmlns:sodipodi="http://sodipodi.sourceforge.net/DTD/sodipodi-0.dtd"
   xmlns:xlink="http://www.w3.org/1999/xlink"
   xmlns="http://www.w3.org/2000/svg"
   xmlns:svg="http://www.w3.org/2000/svg">
  <sodipodi:namedview
     id="namedview1"
     pagecolor="#ffffff"
     bordercolor="#000000"
     borderopacity="0.25"
     inkscape:showpageshadow="2"
     inkscape:pageopacity="0.0"
     inkscape:pagecheckerboard="0"
     inkscape:deskcolor="#d1d1d1"
     inkscape:document-units="mm"
     showguides="true"
     inkscape:zoom="8"
     inkscape:cx="88"
     inkscape:cy="116.9375"
     inkscape:window-width="1920"
     inkscape:window-height="1017"
     inkscape:window-x="-8"
     inkscape:window-y="-8"
     inkscape:window-maximized="1"
     inkscape:current-layer="layer1"
     inkscape:export-bgcolor="#ffffffff">
    <sodipodi:guide
       position="17.0266,272.01167"
       orientation="0,-1"
       id="guide1"
       inkscape:locked="false" />
    <sodipodi:guide
       position="15.587732,260.88443"
       orientation="0,-1"
       id="guide2"
       inkscape:locked="false" />
    <sodipodi:guide
       position="18.849165,274.01009"
       orientation="0,-1"
       id="guide3"
       inkscape:locked="false" />
    <sodipodi:guide
       position="19.504649,258.90199"
       orientation="0,-1"
       id="guide4"
       inkscape:locked="false" />
    <sodipodi:guide
       position="19.984271,271.13237"
       orientation="1,0"
       id="guide5"
       inkscape:locked="false" />
    <sodipodi:guide
       position="30.807753,274.16997"
       orientation="1,0"
       id="guide6"
       inkscape:locked="false" />
    <sodipodi:guide
       position="21.071416,274.12201"
       orientation="1,0"
       id="guide7"
       inkscape:locked="false" />
    <sodipodi:guide
       position="29.752583,274.40979"
       orientation="1,0"
       id="guide8"
       inkscape:locked="false" />
    <sodipodi:guide
       position="22.357292,276.69323"
       orientation="1,0"
       id="guide9"
       inkscape:locked="false" />
    <sodipodi:guide
       position="21.15013,276.67669"
       orientation="1,0"
       id="guide10"
       inkscape:locked="false" />
    <sodipodi:guide
       position="23.663672,276.44518"
       orientation="1,0"
       id="guide11"
       inkscape:locked="false" />
    <sodipodi:guide
       position="17.727083,264.50587"
       orientation="0,-1"
       id="guide12"
       inkscape:locked="false" />
    <sodipodi:guide
       position="21.38164,271.21967"
       orientation="0,-1"
       id="guide13"
       inkscape:locked="false" />
    <sodipodi:guide
       position="15.329297,273.36941"
       orientation="0.70710678,-0.70710678"
       id="guide14"
       inkscape:locked="false" />
    <sodipodi:guide
       position="20.505208,270.97162"
       orientation="1,0"
       id="guide15"
       inkscape:locked="false" />
    <sodipodi:guide
       position="27.599349,272.60872"
       orientation="1,0"
       id="guide16"
       inkscape:locked="false" />
    <sodipodi:guide
       position="18.223177,268.78881"
       orientation="0,-1"
       id="guide17"
       inkscape:locked="false" />
    <sodipodi:guide
       position="21.563541,268.49115"
       orientation="0,-1"
       id="guide18"
       inkscape:locked="false" />
    <sodipodi:guide
       position="25.284245,264.45212"
       orientation="0,-1"
       id="guide19"
       inkscape:locked="false" />
    <sodipodi:guide
       position="21.795052,265.76264"
       orientation="0,-1"
       id="guide25"
       inkscape:locked="false" />
    <sodipodi:guide
       position="25.598437,266.98634"
       orientation="0,-1"
       id="guide26"
       inkscape:locked="false" />
    <sodipodi:guide
       position="25.552962,274.23757"
       orientation="1,0"
       id="guide27"
       inkscape:locked="false" />
    <sodipodi:guide
       position="24.159765,265.46498"
       orientation="0,-1"
       id="guide28"
       inkscape:locked="false" />
    <sodipodi:guide
       position="24.895638,266.29593"
       orientation="0,-1"
       id="guide29"
       inkscape:locked="false" />
    <sodipodi:guide
       position="28.723827,269.84714"
       orientation="1,0"
       id="guide42"
       inkscape:locked="false" />
    <sodipodi:guide
       position="26.086263,265.88252"
       orientation="1,0"
       id="guide43"
       inkscape:locked="false" />
    <sodipodi:guide
       position="22.56757,265.27094"
       orientation="0,-1"
       id="guide44"
       inkscape:locked="false" />
    <sodipodi:guide
       position="25.3739,275.04048"
       orientation="1,0"
       id="guide20"
       inkscape:locked="false" />
    <sodipodi:guide
       position="24.349934,262.99278"
       orientation="0,-1"
       id="guide21"
       inkscape:locked="false" />
    <sodipodi:guide
       position="27.73164,266.97807"
       orientation="1,0"
       id="guide22"
       inkscape:locked="false" />
  </sodipodi:namedview>
  <defs
     id="defs1">
    <rect
       x="81.494056"
       y="129.22376"
       width="23.5113"
       height="10.429825"
       id="rect48" />
    <linearGradient
       id="linearGradient41"
       inkscape:collect="always">
      <stop
         style="stop-color:#000000;stop-opacity:1;"
         offset="0"
         id="stop41" />
      <stop
         style="stop-color:#000000;stop-opacity:0;"
         offset="1"
         id="stop42" />
    </linearGradient>
    <linearGradient
       id="linearGradient39"
       inkscape:collect="always">
      <stop
         style="stop-color:#fdfdfd;stop-opacity:1;"
         offset="0"
         id="stop39" />
      <stop
         style="stop-color:#fdfdfd;stop-opacity:0;"
         offset="1"
         id="stop40" />
    </linearGradient>
    <linearGradient
       inkscape:collect="always"
       xlink:href="#linearGradient39"
       id="linearGradient40"
       x1="22.131392"
       y1="29.402375"
       x2="22.575682"
       y2="29.402375"
       gradientUnits="userSpaceOnUse" />
    <linearGradient
       inkscape:collect="always"
       xlink:href="#linearGradient41"
       id="linearGradient42"
       x1="22.131392"
       y1="29.402375"
       x2="22.575682"
       y2="29.402375"
       gradientUnits="userSpaceOnUse" />
    <clipPath
       clipPathUnits="userSpaceOnUse"
       id="clipPath137">
      <path
         id="path138"
         style="fill:#ff0000;fill-opacity:1;fill-rule:nonzero;stroke:none;stroke-width:0.264583"
         d="M 19.95072,22.957772 V 38.12222 H 30.842045 V 22.957772 Z m 10.757483,9.271269 c 0.0054,-0.0013 0.01185,0.0035 0.01188,0.01447 5.8e-5,0.01114 7.94e-4,0.02236 0.0011,0.03359 7.94e-4,-2.65e-4 0.0016,-5.3e-4 0.0026,-5.3e-4 0.0044,-6.8e-5 0.0094,0.0038 0.01188,0.01188 0.0013,0.0046 0.0024,0.0092 0.0031,0.01394 0.0016,-0.0011 0.0038,-0.0016 0.0072,-0.0016 0.0055,1.38e-4 0.0081,0.004 0.0093,0.0083 5.29e-4,-1.74e-4 5.29e-4,-0.0016 0.0011,-0.0016 0.0049,-7.94e-4 0.01021,0.0033 0.01138,0.01291 5.3e-4,0.0041 0.0011,0.0082 0.0016,0.01241 7.94e-4,0.0055 7.94e-4,0.01146 0.0011,0.01707 1.35e-4,0.007 2.49e-4,0.01368 5.29e-4,0.02066 5.3e-4,0.01339 5.3e-4,0.02691 5.3e-4,0.04031 1.48e-4,0.01794 5.29e-4,0.0358 5.29e-4,0.05374 1.6e-5,0.01691 -6.4e-5,0.03374 -5.29e-4,0.05064 -5.3e-4,0.01638 -0.0021,0.03274 -0.0031,0.04909 -0.0011,0.01937 -0.0019,0.03898 -0.0021,0.05839 -2.64e-4,0.02167 -7.94e-4,0.04344 -5.29e-4,0.06511 2.14e-4,0.01474 5.29e-4,0.02915 5.29e-4,0.04393 -3.9e-5,0.01254 -2.54e-4,0.02521 -5.29e-4,0.03772 -3.7e-5,0.01 -5.29e-4,0.01995 -5.29e-4,0.02997 10e-6,0.0086 5.29e-4,0.01722 5.29e-4,0.02582 1.4e-4,0.0059 -2.54e-4,0.01167 -5.29e-4,0.01757 -2.2e-4,0.0053 -5.29e-4,0.01071 -5.29e-4,0.01603 4.7e-5,0.0045 1.21e-4,0.009 -5.29e-4,0.01344 -5.3e-4,0.0029 -7.94e-4,0.0013 -0.0021,0.0047 -0.0075,0.01796 -0.01082,-0.02774 -0.01707,-0.0093 -1.74e-4,5.29e-4 -2.51e-4,0.0011 -5.29e-4,0.0016 5.29e-4,-0.0034 5.29e-4,-0.0068 5.29e-4,-0.01034 5.6e-5,-0.0055 2.54e-4,-0.01103 5.29e-4,-0.01654 2.31e-4,-0.0056 5.3e-4,-0.01093 5.3e-4,-0.01654 -1.04e-4,-0.0088 -5.3e-4,-0.01765 -5.3e-4,-0.02635 9.6e-5,-0.01005 5.3e-4,-0.01992 5.3e-4,-0.02997 1.77e-4,-0.01238 5.29e-4,-0.02482 5.29e-4,-0.03721 -1.14e-4,-0.01474 -2.52e-4,-0.0297 -5.29e-4,-0.04444 -1.91e-4,-0.01945 2.25e-4,-0.03894 5.29e-4,-0.05839 -5.29e-4,0.01241 -0.0011,0.02482 -0.0016,0.03721 -0.0013,0.02827 -0.0016,0.05645 -0.0021,0.08475 -2.65e-4,0.02019 -0.0011,0.04026 -0.0011,0.06046 -6.8e-5,0.01291 1.4e-5,0.02585 0,0.03876 -8e-6,0.0097 6e-6,0.01976 0,0.02946 2.4e-5,0.0053 1.99e-4,0.01072 5.29e-4,0.01601 -0.0029,-0.01445 -0.01574,0.02463 -0.01913,0.0062 -2.65e-4,-0.0016 -5.29e-4,-0.0035 -5.29e-4,-0.0052 -2.65e-4,-0.0057 -5.29e-4,-0.01135 -5.29e-4,-0.01704 2e-6,-0.0097 -1.1e-5,-0.01976 0,-0.02946 10e-6,-0.01294 -7.2e-5,-0.02582 0,-0.03876 1.08e-4,-0.02027 7.94e-4,-0.04021 0.0011,-0.06046 5.29e-4,-0.02851 5.29e-4,-0.0573 0.0021,-0.08578 0.0011,-0.01995 0.0019,-0.03995 0.0026,-0.05994 -0.0053,0.0013 -0.01093,-0.0021 -0.01138,-0.01291 -5.3e-4,-0.0114 -0.0013,-0.0227 -0.0016,-0.03411 -7.94e-4,-0.02619 -0.0011,-0.05238 -0.0026,-0.07855 -0.0013,-0.02735 -0.0035,-0.05483 -0.0052,-0.08217 -0.0016,-0.03194 -0.0037,-0.06365 -0.0052,-0.0956 -7.93e-4,-0.01958 -0.0016,-0.03931 -0.0016,-0.05891 -1.9e-5,-0.0085 0.0035,-0.01341 0.0078,-0.01447 z m 0.04289,0.272852 v 5.29e-4 c -1.96e-4,0.01206 -5.29e-4,0.02413 -0.0011,0.03617 5.3e-4,-0.0079 0.0013,-0.01588 0.0016,-0.02376 1.37e-4,-0.0043 -7.4e-5,-0.0086 0,-0.01291 z" />
    </clipPath>
    <clipPath
       clipPathUnits="userSpaceOnUse"
       id="clipPath140">
      <path
         id="path141"
         style="fill:#ff0000;fill-opacity:1;fill-rule:nonzero;stroke:none;stroke-width:0.264583"
         d="M 20.001363,25.032581 V 36.08927 H 30.780551 V 25.032581 Z m 10.70684,7.19646 c 0.0054,-0.0013 0.01185,0.0035 0.01188,0.01447 5.8e-5,0.01114 7.94e-4,0.02236 0.0011,0.03359 7.94e-4,-2.65e-4 0.0016,-5.3e-4 0.0026,-5.3e-4 0.0044,-6.8e-5 0.0094,0.0038 0.01188,0.01188 0.0013,0.0046 0.0024,0.0092 0.0031,0.01394 0.0016,-0.0011 0.0038,-0.0016 0.0072,-0.0016 0.008,2.01e-4 0.01,0.008 0.01035,0.01394 2.27e-4,0.0087 -4.5e-5,0.01725 0,0.02585 -6.4e-5,0.01418 -2.65e-4,0.02871 -5.29e-4,0.04289 -5.3e-4,0.02331 -7.94e-4,0.04646 -0.0016,0.06976 -2.64e-4,0.0089 -5.29e-4,0.01953 -0.0011,0.02842 -1.59e-4,0.0038 -2.38e-4,0.0071 -5.29e-4,0.01085 -2.07e-4,0.0028 0.0013,0.007 -5.29e-4,0.0088 l -5.3e-4,5.3e-4 h -5.29e-4 v 5.29e-4 c -5.29e-4,0.02484 -0.0013,0.0496 -0.0026,0.07441 -0.0011,0.02993 -0.0021,0.06001 -0.0036,0.08992 -0.0013,0.02827 -0.0016,0.05645 -0.0021,0.08475 -2.65e-4,0.02019 -0.0011,0.04026 -0.0011,0.06046 -6.9e-5,0.01291 1.3e-5,0.02585 0,0.03876 -8e-6,0.0097 5e-6,0.01976 0,0.02946 2.3e-5,0.0053 1.98e-4,0.01072 5.29e-4,0.01601 -0.0029,-0.01445 -0.01574,0.02463 -0.01913,0.0062 -2.64e-4,-0.0016 -5.29e-4,-0.0035 -5.29e-4,-0.0052 -2.64e-4,-0.0057 -5.29e-4,-0.01135 -5.29e-4,-0.01704 3e-6,-0.0097 -1.1e-5,-0.01976 0,-0.02946 1.1e-5,-0.01294 -7.1e-5,-0.02582 0,-0.03876 1.08e-4,-0.02027 7.94e-4,-0.04021 0.0011,-0.06046 5.3e-4,-0.02851 5.3e-4,-0.0573 0.0021,-0.08578 7.94e-4,-0.01961 0.0019,-0.03926 0.0026,-0.05891 -0.0052,7.94e-4 -0.01095,-0.0035 -0.01138,-0.01394 -5.29e-4,-0.0114 -0.0013,-0.0227 -0.0016,-0.03411 -7.93e-4,-0.02619 -0.0011,-0.05238 -0.0026,-0.07855 -0.0013,-0.02735 -0.0035,-0.05483 -0.0052,-0.08217 -0.0016,-0.03194 -0.0037,-0.06365 -0.0052,-0.0956 -7.94e-4,-0.01958 -0.0016,-0.03931 -0.0016,-0.05891 -1.8e-5,-0.0085 0.0035,-0.01341 0.0078,-0.01447 z" />
    </clipPath>
    <clipPath
       clipPathUnits="userSpaceOnUse"
       id="clipPath438">
      <path
         id="path439"
         style="fill:#ff0000;fill-opacity:1;fill-rule:nonzero;stroke:none;stroke-width:0.205406"
         d="m 19.20515,24.612981 v 8.268388 h 2.559366 c -0.0084,-0.0282 -0.0171,-0.05629 -0.02443,-0.0848 -0.01132,-0.0441 -0.01726,-0.0913 -0.02202,-0.137853 -0.0035,0.0014 -0.0072,0.0021 -0.01081,0.0032 -8.2e-4,-0.0014 -0.0016,-0.0029 -0.0024,-0.0044 -1.38e-4,-2.06e-4 -4.11e-4,-0.0027 -4.11e-4,-0.0028 -1.84e-4,-0.0021 1.03e-4,-0.0043 -4.1e-4,-0.0064 -1.72e-4,-8.23e-4 4.3e-5,-0.0016 -4.1e-4,-0.0024 -2.05e-4,-8.23e-4 -6.15e-4,-0.0019 -8.2e-4,-0.0028 -0.001,2.06e-4 -0.0021,-1.03e-4 -0.0032,4.12e-4 -0.0021,2.05e-4 -0.0037,-0.0016 -0.0048,-0.004 -0.0016,-1.28e-4 -0.0033,-8.23e-4 -0.0048,-0.0012 -8.2e-4,-4.11e-4 -0.0021,-6.17e-4 -0.0028,-0.0012 -0.0037,-0.0026 -0.0062,-0.0064 -0.008,-0.01045 -9.9e-5,0.0034 -4.1e-4,0.0067 -8.2e-4,0.01004 -0.0016,0.0076 -8e-5,0.0068 -0.01482,0.0056 -10e-4,-7.8e-5 -8.2e-4,-0.0019 -0.0012,-0.0028 -8.2e-4,-0.0027 -8.2e-4,-0.0058 -0.0012,-0.0084 -4.1e-4,-0.0047 -0.001,-0.0094 -0.0016,-0.01407 -0.0014,0.0019 -0.004,0.0035 -0.0076,0.0044 -0.0053,0.0014 -0.01093,0.0022 -0.01642,0.0024 -2.05e-4,0.0094 -6.15e-4,0.01875 -8.2e-4,0.02813 2.05e-4,-8.23e-4 6.15e-4,-0.0016 8.2e-4,-0.0024 4.1e-4,-0.0012 8.2e-4,-0.0026 0.0012,-0.004 0.0045,-0.0144 0.01907,-0.0096 0.01441,0.0048 -4.1e-4,0.0012 -8.2e-4,0.0024 -0.0012,0.0036 -0.0012,0.004 -0.0024,0.008 -0.0044,0.01165 -0.0026,0.0049 -0.0051,0.01019 -0.0096,0.01408 -4.1e-4,4.11e-4 -10e-4,6.17e-4 -0.0016,8.23e-4 -2.05e-4,0.0053 -0.0014,0.02365 -0.0016,0.02773 -1.95e-4,0.0033 2.05e-4,0.0068 -8.2e-4,0.01004 -8.2e-4,0.0036 9.9e-5,0.009 -0.0032,0.01045 -0.0041,0.0019 -0.0094,-0.0012 -0.01322,-0.0036 -0.0014,-8.23e-4 -8.21e-4,-0.0032 -0.0012,-0.0048 -0.0035,-0.0278 -0.0043,-0.05599 -0.0052,-0.084 -9.4e-5,-8.23e-4 -4.1e-4,-0.0019 -4.1e-4,-0.0024 -8.2e-5,-8.23e-4 8e-5,-0.0016 0,-0.0024 -4.1e-4,-0.0044 -0.0012,-0.0088 -0.0016,-0.01325 l -4.1e-4,-4.12e-4 h -4.1e-4 c -3.7e-5,0.0023 4.9e-5,0.0027 0,0.0056 -6.6e-5,0.0039 0.0023,0.0088 -4.1e-4,0.01165 l -4.1e-4,4.11e-4 c 0.001,0.0021 0.0012,0.0036 0,0.0036 -0.0021,-5.8e-5 -0.004,1.01e-4 -0.006,-4.11e-4 -0.0024,6.17e-4 -0.0048,8.23e-4 -0.0072,8.23e-4 3.3e-5,0.0045 -2.9e-5,0.0091 0,0.01366 -6e-5,0.0058 4.1e-4,0.0093 -4.1e-4,0.01126 3.1e-5,10e-4 0.001,0.0033 0,0.0032 -0.0021,-2.02e-4 -0.0029,8.7e-5 -0.0044,-4.11e-4 h -4.1e-4 c -0.0023,4.11e-4 -0.0054,8.23e-4 -0.01,0.0012 -10e-4,7.6e-5 1.4e-5,-0.0021 0,-0.0032 -2.7e-5,-8.23e-4 1.4e-5,-0.0016 0,-0.0024 v -4.12e-4 c -1.91e-4,-0.0014 -1.25e-4,-0.0035 0,-0.006 -7.2e-5,-0.004 -4.11e-4,-0.0081 -4.11e-4,-0.01206 -5.5e-5,-0.01288 5.6e-5,-0.0257 0,-0.03858 -9.2e-5,-0.0068 1.44e-4,-0.01368 -4.1e-4,-0.02049 -6.15e-4,6.18e-4 -8.2e-4,10e-4 -0.0021,0.0016 -0.0027,0.0023 -0.0054,0.0044 -0.0088,0.0044 0.0018,0.0064 0.0043,0.01424 0.0052,0.01809 6.16e-4,0.0025 0.0016,0.0092 0.0024,0.01245 0.003,0.01482 -0.01179,0.01722 -0.01482,0.0024 -6.15e-4,-0.0031 -0.0022,-0.0094 -0.0028,-0.01165 -8.2e-4,-0.0034 -0.0063,-0.02177 -0.0068,-0.02371 -4.1e-4,-0.0014 -4.1e-4,-0.0023 -8.2e-4,-0.0036 -8.2e-4,6.18e-4 -0.0018,0.0014 -0.0028,0.0016 -0.0012,1.32e-4 -0.0024,-1.09e-4 -0.0036,-4.11e-4 -0.0014,6.17e-4 -0.0026,0.0012 -0.004,0.0016 -0.0022,0.0043 -0.0052,0.0045 -0.0084,0.0012 -0.01821,-4.12e-4 -0.03559,-0.01918 -0.03284,-0.05506 1.03e-4,-0.0012 4.11e-4,-0.0024 4.11e-4,-0.0036 4.1e-4,-0.0052 0.0012,-0.01054 0.0024,-0.01568 0,-6.18e-4 1.3e-5,-10e-4 0,-0.0016 0,-0.0026 6e-5,-0.005 0,-0.0076 -5.3e-5,-0.0029 5.8e-5,-0.0046 -4.1e-4,-0.0072 -1.84e-4,-0.0029 -4.1e-4,4.11e-4 -4.1e-4,-0.0024 v -0.01004 -0.01004 -0.01165 -0.01206 -0.01004 -0.0088 c -2e-6,-0.0022 4e-6,-0.0035 0,-0.0056 -4e-6,-0.0021 2.1e-5,-0.0027 0,-0.0048 -2.6e-5,-0.0025 3.1e-5,-0.0048 -4.1e-4,-0.0072 -1.04e-4,-0.0019 6.6e-5,-0.0038 -4.1e-4,-0.0056 -8.2e-4,-0.0061 0.0012,-0.01002 0.004,-0.01165 -4.3e-5,-0.0026 -10e-4,-0.0051 -0.0012,-0.0076 -1.82e-4,-0.0026 -0.0012,-0.0054 -0.0012,-0.008 -4.1e-5,-0.0024 -0.001,-0.0048 -0.0012,-0.0072 -1.85e-4,-0.0027 -0.0012,-0.0053 -0.0012,-0.008 0,-0.0023 1.4e-5,-0.0041 0,-0.0064 0,-0.0024 5.5e-5,-0.0012 0,-0.0036 -3.9e-5,-0.0024 -8.21e-4,-0.0016 -0.0012,-0.004 -4.1e-4,-0.0033 -8.2e-4,-0.0065 -0.0012,-0.01004 -4.1e-4,-0.0033 -0.001,-0.0065 -0.0012,-0.01004 -7.8e-5,-0.0028 6.1e-5,-0.0052 -4.1e-4,-0.008 -2.03e-4,-0.0033 -0.0012,-0.0067 -0.0012,-0.01004 9e-5,-0.0038 0.0012,-0.0057 0.0028,-0.0076 v -8.23e-4 c -2.03e-4,-0.0023 -0.001,-0.003 -0.0012,-0.0052 -2.03e-4,-0.0026 -0.0012,-0.0046 -0.0012,-0.0072 0,-0.0023 2.9e-5,-0.0037 0,-0.006 -1.2e-5,-0.0016 9.2e-5,-0.0027 0,-0.0044 -9.4e-5,-0.0019 -0.001,-0.0038 -0.0012,-0.0056 -2.03e-4,-0.0021 7.8e-5,-0.0031 0,-0.0052 -1.07e-4,-0.0019 -10e-4,-0.0026 -0.0012,-0.0044 -1.21e-4,-0.0022 0,-0.0043 0,-0.0064 v -0.0044 c -0.0026,-0.0082 -0.0048,-0.01669 -0.0052,-0.02532 -2.05e-4,-0.0066 -4e-6,-0.01346 0,-0.02008 1.8e-5,-0.03501 0.01741,-0.05265 0.03484,-0.05265 0.01745,2e-6 0.03494,0.01763 0.03564,0.05265 1.15e-4,0.0057 -4.1e-4,0.01121 0,0.01687 6.15e-4,0.0023 8.2e-4,0.0051 0.0021,0.0072 1.84e-4,6.17e-4 1.7e-4,8.23e-4 4.1e-4,0.0021 0.0063,0.01778 0.0058,0.03231 0.0016,0.043 8.6e-5,8.23e-4 4.1e-4,0.0016 4.1e-4,0.0024 6.15e-4,8.23e-4 0.001,0.0016 0.0016,0.0024 1.95e-4,-4.12e-4 7e-6,-0.0012 4.11e-4,-0.0016 0.0079,-0.0097 0.0098,-0.0071 0.01562,0.0052 0.0038,-0.0056 8.21e-4,-0.01605 0.0048,-0.0052 6.15e-4,0.0012 8.2e-4,0.0026 0.0012,0.004 4.11e-4,0.0012 4.11e-4,0.0029 8.21e-4,0.0044 6.15e-4,-8.24e-4 0.001,-0.0014 0.0016,-0.0024 4e-6,-6.17e-4 -1.4e-5,-10e-4 0,-0.0016 1.25e-4,-0.0063 6.15e-4,-0.01251 0.0012,-0.01889 2.03e-4,-0.0041 6.15e-4,-0.0081 0.0016,-0.01206 6.16e-4,-0.0023 6.16e-4,-0.0057 0.0028,-0.0068 0.003,-0.0016 0.0053,-0.0016 0.0088,-0.0016 0.0012,-1.2e-5 0.0025,1.36e-4 0.0036,0 0.0018,0.0033 0.0041,0.0065 0.0056,0.01004 6.15e-4,0.0016 0.0016,0.0032 0.0024,0.0052 0.0036,0.001 0.007,0.0016 0.0096,0.004 0.0023,0.0021 0.0012,0.0062 0.0016,0.0092 6.15e-4,0.0056 8.2e-4,0.01121 0.0012,0.01687 1.52e-4,0.0028 4.1e-4,0.0052 8.2e-4,0.008 1.66e-4,-0.0012 -8.6e-5,-0.0024 4.1e-4,-0.0036 0.0016,-0.0049 0.0018,-0.0071 0.0036,-0.0076 0.001,-4.11e-4 0.0046,8.23e-4 0.0072,0.0021 -6.15e-4,-0.0022 -8.2e-4,-0.0041 -0.0021,-0.0064 -0.0086,-0.03619 0.0063,-0.05714 0.02483,-0.05868 0.01636,-0.0014 0.03594,0.01212 0.04445,0.04381 0.0029,0.01091 0.007,0.02108 0.01163,0.03135 0.0031,0.0071 0.0067,0.0143 0.01081,0.0209 0.0131,-0.104345 0.0339,-0.207243 0.07168,-0.305848 0.0222,-0.05476 0.04623,-0.108361 0.07369,-0.160361 0.0051,-0.01113 0.01015,-0.02222 0.01521,-0.03336 0.03699,-0.07562 0.07322,-0.152157 0.116136,-0.224666 0.0051,-0.0094 0.01015,-0.01796 0.01521,-0.02733 -4.1e-4,-0.01183 -6.15e-4,-0.02397 -4.1e-4,-0.03577 -4.1e-4,-0.01368 -6.15e-4,-0.02736 -0.0012,-0.04099 -0.0067,-0.04801 -0.01767,-0.109468 -0.01921,-0.161565 -0.0026,-0.03829 -0.0069,-0.07669 -0.01322,-0.114542 -0.007,-0.04758 -0.01271,-0.09535 -0.01841,-0.143078 -0.01679,-0.02402 -0.03317,-0.04859 -0.04725,-0.07395 -0.0018,0.07424 -0.07972,0.0763 -0.0857,-0.0032 -0.001,-0.01342 -0.0018,-0.02673 -0.0016,-0.04019 -1.42e-4,-0.02008 -8.2e-4,-0.04019 -0.0012,-0.06029 -6.15e-4,4.11e-4 -0.001,8.23e-4 -0.0016,0.0012 -0.01794,0.01097 -0.03857,0.01255 -0.05847,0.0044 -0.01177,-0.0039 -0.02311,-0.0086 -0.03324,-0.01527 -0.01021,-6.17e-4 -0.02042,-4.12e-4 -0.03044,-0.0028 -0.02085,-0.0056 -0.03949,-0.01504 -0.05166,-0.03376 -0.0088,-0.01661 -0.01333,-0.03385 -0.01441,-0.05265 -0.0016,-0.01603 -0.0024,-0.03256 -0.0036,-0.04863 v -0.01809 c -0.0018,0.0043 -0.0055,0.0024 -0.0088,0.0024 -0.0043,0.0014 -0.0091,-0.0016 -0.0088,-0.01045 8.2e-5,-0.0016 -6.15e-4,-0.0024 -8.2e-4,-0.004 -1.41e-4,-6.18e-4 2.05e-4,-6.18e-4 -4.1e-4,-0.0012 -2.03e-4,-8.23e-4 -6.15e-4,-8.23e-4 -0.0012,-0.0021 -0.0041,8.23e-4 -0.0088,-0.0038 -0.0088,-0.01206 0,-0.0027 -2e-6,-0.0029 0,-0.0056 2e-6,-0.0037 -2.2e-5,-0.0068 0,-0.01045 1.3e-5,-0.0038 -7.1e-5,-0.0082 0,-0.01206 7.8e-5,-0.0035 -2.05e-4,-0.007 4.1e-4,-0.01045 1.97e-4,-0.0031 8.21e-4,-0.0065 8.21e-4,-0.01004 8e-6,-0.0031 -3.1e-5,-0.0038 0,-0.0068 4.9e-5,-0.0041 2.05e-4,-0.0079 0.0012,-0.01206 2.05e-4,-0.004 -2.05e-4,-0.008 8.2e-4,-0.01206 6.15e-4,-0.0046 0.001,-0.01027 0.0016,-0.01488 4.1e-4,-0.0032 0.0014,-0.0064 0.0012,-0.01004 v -0.006 -0.01004 -0.01004 -0.0073 -0.006 c 0,-0.0019 1.5e-5,-0.0033 0,-0.0052 0,-0.0022 4.1e-5,-0.0027 0,-0.0048 -1.4e-5,-0.0027 -6.15e-4,4.11e-4 -0.0012,-0.0024 -6.3e-5,-0.0016 1.21e-4,-0.0032 0,-0.0048 -4.7e-5,-6.17e-4 -0.0012,-0.0016 -0.0012,-0.0024 -1.19e-4,-10e-4 -4e-6,-0.0021 0,-0.0028 4e-6,-8.23e-4 -1.09e-4,-8.23e-4 0,-0.0021 v -0.0012 -0.004 c 0,-0.0047 0.0016,-0.0079 0.0036,-0.01004 -8e-5,-0.004 1.25e-4,-0.0081 0,-0.01206 -2.03e-4,-0.007 -8.21e-4,-0.01389 -8.21e-4,-0.0209 -4.1e-5,-0.0039 -2e-6,-0.0078 0,-0.01165 -4.1e-4,-10e-4 -6.15e-4,-10e-4 -8.2e-4,-0.0024 -4.1e-4,-0.0024 -8.2e-4,-1.97e-4 -0.0012,-0.0024 -6.15e-4,-0.0038 -0.001,-0.0074 -0.0016,-0.01126 -4.1e-4,-0.0034 -8.2e-4,-0.0068 -0.0016,-0.01004 -8.2e-4,-0.0043 -0.0021,-0.0084 -0.0024,-0.01286 -6.16e-4,-0.0055 -10e-4,-0.01144 -0.0012,-0.01687 v -0.01607 c 0,-0.0066 0.0027,-0.01037 0.006,-0.01126 8.2e-4,-2.03e-4 0.0018,-2.03e-4 0.0028,0 v -0.004 -0.0024 c -0.0047,8.23e-4 -0.0094,0.001 -0.014,0 -0.0072,-0.0014 -0.0078,-0.0022 -0.01403,-0.0052 -8.2e-4,-4.11e-4 -0.0016,-8.23e-4 -0.0024,-0.0012 -2.05e-4,0.02318 -6.15e-4,0.04638 -8.2e-4,0.06953 -8.2e-5,0.008 2.05e-4,0.0128 -4.1e-4,0.0205 -6e-6,1.59e-4 2.05e-4,0.0038 -4.1e-4,0.0072 6.6e-5,6.17e-4 4.1e-4,8.23e-4 4.1e-4,0.0016 -4.9e-5,0.0066 -1.29e-4,0.01309 0,0.01969 1.56e-4,0.01233 8.2e-4,0.02467 0.0012,0.03697 2.3e-5,6.18e-4 -1.8e-5,0.0012 0,0.0024 0.0026,0.0057 0.0046,0.01177 0.0048,0.01809 7e-5,0.0019 4.1e-5,0.0033 0,0.0052 -6.15e-4,0.0049 -0.0018,0.0097 -0.0032,0.01447 2.05e-4,0.0058 4.1e-4,0.01144 8.2e-4,0.01729 4.1e-4,0.01523 0.001,0.03058 0.0012,0.04582 1.66e-4,0.01 4.1e-4,0.01977 4.1e-4,0.02974 1.19e-4,0.01513 -0.01513,0.01513 -0.01521,0 -10e-6,-0.0014 1.1e-5,-0.0021 0,-0.0036 -0.0016,-0.0012 -0.0027,-0.004 -0.0036,-0.0072 -0.0112,0.02212 -0.03578,0.01794 -0.04205,-0.008 -2.05e-4,0.0077 -0.0087,0.0113 -0.01521,0 -0.0074,-0.01035 -0.0037,-0.0053 -0.01163,-0.01607 -0.0046,-0.0061 -0.0088,-0.01177 -0.01361,-0.01768 -0.0067,-0.0084 -0.01392,-0.01626 -0.02082,-0.02452 -0.0055,-0.0065 -0.0042,-0.01165 0,-0.01286 4.1e-4,-1.15e-4 8.2e-4,-4.11e-4 0.0012,-4.11e-4 0.0033,-2.06e-4 0.0079,0.0016 0.01202,0.0056 4.1e-4,4.12e-4 8.2e-4,6.18e-4 0.0012,0.0012 0.0062,0.0068 0.0122,0.01407 0.01802,0.0213 0.0051,0.0063 0.0095,0.01163 0.01441,0.01809 0.0081,0.01101 0.0041,0.0059 0.0116,0.01648 0.0022,0.0031 0.0029,0.0063 0.0028,0.0088 -0.0012,-0.0048 -0.0028,-0.0092 -0.0024,-0.01568 5.3e-5,-8.23e-4 -2.5e-5,-8.23e-4 0,-0.0012 -0.0037,2.05e-4 -0.0076,-0.0024 -0.0076,-0.01004 -7.6e-5,-0.0061 4.1e-5,-0.012 0,-0.01809 -4.1e-5,-0.0012 -8.2e-4,-0.0016 -8.2e-4,-0.0056 -8.2e-5,-0.0058 -4.1e-5,-0.01144 0,-0.01729 -4.1e-4,2.06e-4 -10e-4,-1.07e-4 -0.0016,0 -0.0012,0.01307 -0.01499,0.01706 -0.01521,-0.0024 -4.9e-5,-0.0022 2.05e-4,-0.0046 -4.1e-4,-0.0068 -1.58e-4,-0.0028 -4.1e-4,-0.0052 -4.1e-4,-0.008 -3.9e-5,-0.0023 1.2e-5,-0.0041 0,-0.0064 -9e-6,-0.0021 2e-6,-0.004 0,-0.006 v -0.008 c -9e-6,-0.0032 -2.05e-4,-0.0069 4.1e-4,-0.01004 1.82e-4,-0.0012 6.15e-4,-0.0024 8.2e-4,-0.0036 4.1e-4,-0.003 0.0012,-0.0035 0.0024,-0.0052 -6e-5,-4.11e-4 -4.1e-4,-4.11e-4 -4.1e-4,-8.23e-4 -8.2e-4,-0.0059 -0.001,-0.01247 -0.0012,-0.01848 -1.35e-4,-0.0054 9.9e-5,-0.01025 0,-0.01568 -9.4e-5,-0.0057 -0.001,-0.01198 -0.0012,-0.01768 -1.66e-4,-0.0045 -4.1e-5,-0.0091 0,-0.01366 v -0.01488 -0.01527 -0.01527 -0.0028 -0.0021 -0.008 -0.0068 c 0,-0.0037 0.001,-0.0016 0.0024,-0.0036 v -0.0036 -0.01004 -0.01165 -0.01206 -0.01325 -0.01206 -0.01206 -0.01084 -0.01045 -8.23e-4 c -0.0024,-0.0055 -0.0018,-0.01039 0,-0.01286 v -0.01527 -0.01247 -0.01165 -0.01206 -0.01004 -0.0068 -0.01206 -0.01084 -0.0068 -0.0068 c -2e-6,-0.0022 2e-6,-0.0043 0,-0.0064 -2e-6,-0.0021 2e-6,-0.0039 0,-0.006 -1.6e-5,-0.0019 5.1e-5,-0.003 0,-0.0048 -7e-5,-0.0016 -6.15e-4,-0.0021 -8.2e-4,-0.0036 -2.05e-4,-0.0027 -0.0012,-0.003 -0.0012,-0.0056 -2.3e-5,-6.18e-4 -2e-6,-8.23e-4 0,-0.0012 -1.29e-4,-4.12e-4 -1.46e-4,-8.23e-4 -4.1e-4,-0.0012 -6.15e-4,-0.0022 -8.2e-4,-0.0046 -8.2e-4,-0.0084 -5e-6,-0.0028 -1.85e-4,-0.0053 4.1e-4,-0.008 8.2e-4,-0.0034 6.15e-4,-0.0023 0.0012,-0.006 6.3e-5,-2.06e-4 -6.6e-5,-4.12e-4 0,-8.24e-4 h 4.1e-4 c -2e-6,-6.17e-4 0,-0.0016 0,-0.0016 -1.4e-5,-0.0021 4.9e-5,-0.0043 0,-0.0064 -4.7e-5,-0.0016 -1.54e-4,-0.0032 -4.1e-4,-0.0048 -4.1e-4,-0.0033 -8.2e-4,-0.0067 -8.2e-4,-0.01004 4e-6,-0.003 -1.3e-5,-0.0051 0,-0.008 1.8e-5,-0.004 -1.17e-4,-0.008 0,-0.01206 1.56e-4,-0.0055 6.15e-4,-0.01111 0.0016,-0.01648 4.1e-4,-0.0019 10e-4,-0.0024 8.2e-4,-0.0044 -0.0028,-0.02304 0.0073,-0.0355 0.01921,-0.03698 0.01042,-0.0012 0.02224,0.0056 0.02763,0.0209 0.0046,-0.0061 0.01066,-0.0098 0.01722,-0.0092 0.01101,6.17e-4 0.02197,0.0108 0.02563,0.03215 0.0026,0.01486 0.0044,0.02972 0.0068,0.04461 0.0018,0.01191 0.0032,0.02381 0.0048,0.03577 0.0012,0.008 0.0021,0.01605 0.0012,0.02412 -0.001,0.0063 -0.0027,0.01259 -0.004,0.01889 -0.001,0.0045 -0.0012,0.0087 -0.0016,0.01327 -6.15e-4,0.0096 -4.1e-4,0.01934 0,0.02894 0.0014,0.01718 0.0036,0.03448 0.0068,0.05144 0.01154,-0.01056 0.01357,-0.01475 0.02082,-0.01084 v -0.01429 h 0.0012 c 0,-0.04276 0.02133,-0.0635 0.04285,-0.0635 0.02152,0 0.04325,0.02068 0.04325,0.0635 v 0.03617 0.02653 c 0.0062,-0.0044 0.01269,-0.0052 0.01962,-0.0052 0.0106,0 0.02132,0.0052 0.02923,0.01568 0.0031,-0.02563 0.0048,-0.05106 0.0088,-0.07636 0.01343,-0.0655 0.02889,-0.128988 0.05126,-0.192112 0.0064,-0.01807 0.01378,-0.03649 0.02083,-0.05426 0.0021,-0.0052 0.0055,-0.01204 0.0068,-0.01488 1.5e-5,-2.04e-4 4.1e-4,-0.001 4.1e-4,-0.0012 0.0014,-0.01512 0.0024,-0.03045 0.0044,-0.04542 0.0012,-0.0093 0.0024,-0.01846 0.0036,-0.02773 1.62e-4,-0.0012 -2.05e-4,-8.23e-4 4.1e-4,-0.0021 2.03e-4,-0.0038 -2.05e-4,-0.0083 4.11e-4,-0.01206 0.0061,-0.102559 0.01786,-0.205014 0.04565,-0.304241 0.02157,-0.07002 0.02698,-0.09438 0.05727,-0.163174 0.01564,-0.03555 0.03342,-0.07001 0.05246,-0.10369 -0.0083,-0.07655 -0.01495,-0.153158 -0.01482,-0.230293 -1.9e-5,-0.132052 5.3e-5,-0.263816 0,-0.395875 -6.4e-5,-0.137305 2.05e-4,-0.274646 -4.1e-4,-0.411954 -4.1e-4,-0.07508 -8.2e-4,-0.150403 -0.0024,-0.225468 -0.0018,-0.07209 -0.0046,-0.144285 -0.0096,-0.216224 -0.0067,-0.101301 -0.01206,-0.202356 -0.01562,-0.30384 -0.0057,-0.09511 -0.0094,-0.190457 -0.0076,-0.285754 v -0.05988 c -0.0026,0.01012 -0.0069,0.01765 -0.01403,0.02532 -0.0018,0.0016 -0.0056,0.0048 -0.008,0.0056 -0.0039,0.0012 -0.0083,0.0024 -0.0124,0.0028 -0.0029,2.04e-4 -0.0064,-4.12e-4 -0.01001,-0.0012 -0.0014,0.02531 -0.0023,0.05061 -0.0036,0.07596 -4.1e-4,0.0071 -8.2e-4,0.0143 -0.0012,0.0213 h 0.0064 c 4.1e-4,0.0012 2.05e-4,0.0024 -8.2e-4,0.0024 -0.0021,-7.4e-5 -0.004,-0.001 -0.006,-0.0012 -0.01224,0.0024 -0.02447,0.0057 -0.03684,0.0048 -0.0032,-2.04e-4 -0.001,-0.0065 -0.0012,-0.01004 -4.1e-4,-0.0058 -6.15e-4,-0.01183 -8.2e-4,-0.01768 -4.1e-4,-0.009 -10e-4,-0.01794 -0.0012,-0.02693 -0.01197,0.0061 -0.02426,0.01189 -0.03604,0.01848 -0.0028,0.0014 -0.0054,0.0022 -0.008,0.004 -0.0021,0.0014 -0.0038,2.05e-4 -0.0056,0.0024 -0.0066,0.0071 -0.0123,0.01535 -0.01802,0.02291 -0.007,0.0095 -0.01378,0.01998 -0.02042,0.02974 2.03e-4,0.01401 0.0021,0.02786 0.0036,0.0418 0.0014,0.0098 0.0025,0.01994 0.0036,0.02974 0.0047,0.04252 -0.0378,0.04558 -0.04245,0.0024 -8.2e-4,-0.0081 -0.0021,-0.0157 -0.0032,-0.02371 -10e-4,4.11e-4 -0.0021,8.23e-4 -0.0032,0.0012 -8.2e-4,0.0045 -10e-4,0.01243 -0.0024,0.01286 -0.0018,0.0086 4.1e-4,0.02182 -0.0076,0.02532 -0.01044,0.0045 -0.02215,-1.28e-4 -0.03364,-0.0024 6.15e-4,0.0086 0.001,0.01675 0.0024,0.02532 1.64e-4,0.0012 -2.05e-4,0.0012 4.1e-4,0.0024 1.64e-4,0.001 0.0022,0.0012 0.0012,0.0024 4.1e-4,0.0041 -0.0021,0.0037 -0.01122,0.0036 -0.0092,0.0034 -0.01117,0.0036 -0.01562,0.0052 4.1e-4,0.0082 8.2e-4,0.01673 0.0012,0.02492 6.15e-4,0.01027 2.05e-4,0.0207 0.0012,0.03095 0.0033,0.0369 -0.02908,0.04427 -0.04005,0.01809 -4.1e-4,0.01126 -0.0012,0.02249 -0.0016,0.03376 -4.1e-4,0.01043 0.0063,0.02411 -0.0012,0.03135 -4.1e-4,4.12e-4 -4.1e-4,8.24e-4 -8.21e-4,0.0012 v 4.12e-4 c 0.0012,0.01385 0.005,0.03895 -0.02723,0.01004 -0.0052,6.18e-4 -0.01025,8.24e-4 -0.01521,0.0012 -0.0033,2.04e-4 -10e-4,-0.0062 -0.0012,-0.01004 -1.06e-4,-0.0028 -4.1e-4,-0.0048 -4.1e-4,-0.0076 v -0.0024 c -0.0012,-0.0031 -8.2e-4,-0.0066 0,-0.01045 v -8.23e-4 c -2.03e-4,-0.0095 -0.001,-0.01906 -0.0012,-0.02854 -0.0018,-2.04e-4 -0.0027,-0.0012 -0.004,-0.0016 10e-5,0.01714 8.2e-4,0.03429 8.2e-4,0.05144 3.3e-5,0.01095 -1.4e-5,0.02163 0,0.03255 5.7e-5,0.03024 -0.03076,0.03021 -0.03084,4.12e-4 -10e-6,-0.0049 0,-0.0099 0,-0.01488 -0.0012,-6.8e-5 -0.0016,0.0012 -0.0028,8.23e-4 0,8.24e-4 -2e-6,0.0016 0,0.0024 4.1e-5,0.01097 -4.1e-5,0.02203 0,0.03296 4.1e-5,0.01811 -0.01085,0.0253 -0.01962,0.0217 -0.0047,0.01025 -0.01406,0.01282 -0.02042,0.0056 -0.0021,0.01165 -0.01483,0.01 -0.01483,-0.0032 v -0.0068 -0.0036 c -1.66e-4,-4.11e-4 1.34e-4,-0.001 0,-0.0016 -4.1e-4,-0.0012 -0.0012,-0.0019 -0.0012,-0.0036 v -0.0028 -0.0064 c 0,-0.0021 1.9e-5,-0.0043 0,-0.0064 0,-0.0019 3.9e-5,-0.0022 0,-0.004 -2e-5,-0.0016 -1.86e-4,-0.0027 -8.2e-4,-0.0044 -1.48e-4,-0.0021 1.64e-4,-0.0032 -4.1e-4,-0.0052 0,-0.0019 2.7e-5,-0.0033 0,-0.0052 -1.4e-5,-0.0022 8.2e-5,-0.0035 0,-0.0056 -7.2e-5,-0.0019 2.05e-4,-0.0034 -4.1e-4,-0.0052 -2.03e-4,-0.0021 -8.2e-4,-0.0019 -8.2e-4,-0.004 1.6e-5,-0.0016 -2.1e-5,-0.0014 0,-0.0032 2e-5,-0.0019 2.05e-4,-0.0037 8.2e-4,-0.0056 1.23e-4,-0.0022 -1.97e-4,-0.0039 4.1e-4,-0.006 2.03e-4,-0.0019 -8e-5,-0.0041 0,-0.006 v -0.004 -0.0044 c -5.8e-5,-0.0012 -0.0014,-0.001 -0.0012,-0.0024 2.05e-4,-0.0019 8.2e-4,-0.0032 8.2e-4,-0.0052 7.8e-5,-0.0019 4.1e-4,-0.0033 4.1e-4,-0.0052 v -0.0024 c 8e-6,-0.0016 2e-5,-0.0028 0,-0.0044 -4e-6,-0.0026 6.8e-5,-0.0043 0,-0.0068 -6e-5,-0.0029 2.05e-4,-0.0046 -4.1e-4,-0.0072 -2.03e-4,-0.0016 -8.2e-4,-0.0021 -0.0012,-0.0036 -0.001,-0.0041 -8.21e-4,-0.0079 0,-0.01045 v -0.0028 c -2.03e-4,-0.0012 -0.0012,-0.0021 -0.0012,-0.0036 1.17e-4,-0.0022 -1.6e-4,-0.0019 4.1e-4,-0.004 2.03e-4,-0.0023 2.3e-5,-0.0041 0,-0.0064 v -0.006 -0.006 c 2e-6,-0.0019 0,-0.0034 0,-0.0052 2.5e-5,-0.0016 0.0012,-0.0014 0.0012,-0.0032 9.4e-5,-0.0019 -2.05e-4,-0.0026 4.1e-4,-0.0044 2.05e-4,-0.0019 8.2e-4,-0.0022 8.2e-4,-0.004 1.6e-4,-0.0016 8.2e-4,-0.0031 8.2e-4,-0.0048 v -0.004 -0.0056 c 0,-0.0024 4e-6,-0.0037 0,-0.006 0,-0.0021 2.1e-5,-0.0036 0,-0.0056 -1.8e-5,-0.0021 8.2e-5,-0.0025 0,-0.0044 -8e-5,-0.0019 -4.1e-4,-0.0034 -8.2e-4,-0.0052 -2.03e-4,-0.0026 -8.2e-4,-0.0035 -8.2e-4,-0.006 v -0.0056 -0.0056 -0.006 c 0,-0.0019 4e-6,-0.0019 0,-0.0036 0,-0.0019 2.2e-5,-0.0022 0,-0.004 -1.9e-5,-0.0019 6.3e-5,-0.0034 0,-0.0052 -4.7e-5,-0.0014 1.84e-4,-0.0019 -4.1e-4,-0.0032 -2.03e-4,-0.0019 -0.001,-0.0025 -0.0012,-0.0044 -8.6e-5,-6.17e-4 1.81e-4,-8.23e-4 -4.1e-4,-0.0021 -2.03e-4,-0.0012 -0.001,-0.0019 -0.0012,-0.0032 -4.1e-4,-0.0033 1.74e-4,-0.0049 0.0012,-0.0068 v -0.0036 -0.0044 c 0,-0.0023 7e-6,-0.0045 0,-0.0068 -2e-6,-0.0021 3.7e-5,-0.0032 0,-0.0052 -4e-6,-0.0014 1.17e-4,-0.0016 0,-0.0032 -1.21e-4,-0.0016 -0.001,-0.0024 -0.0012,-0.004 -1.31e-4,-0.0021 0,-0.0019 0,-0.004 6e-6,-0.0019 -8e-6,-0.003 0,-0.0048 1.4e-5,-0.0021 -6.3e-5,-0.0024 0,-0.0044 8e-5,-0.0022 8.2e-4,-0.0039 0.0012,-0.006 2.05e-4,-0.0016 6.15e-4,-0.0014 8.21e-4,-0.0032 1.86e-4,-0.0019 10e-6,-0.0034 0,-0.0052 v -0.006 c 2e-6,-0.0021 0,-0.0014 0,-0.0036 1.2e-5,-0.0021 -3.9e-5,-0.0032 0,-0.0052 5.3e-5,-0.0021 0.001,-0.0035 0.0012,-0.0056 1.43e-4,-0.0016 8.2e-4,-0.0032 8.2e-4,-0.0048 v -0.0048 -0.0048 -0.004 -0.0044 -0.0056 -0.0036 c 2e-5,-0.0021 0,-0.0024 0,-0.0044 2.9e-5,-0.0019 -4e-6,-0.0026 0,-0.0044 3.9e-5,-0.0023 -1.58e-4,-0.0045 4.1e-4,-0.0068 1.19e-4,-0.0025 -2.05e-4,-0.004 4.1e-4,-0.0064 v -0.0032 c 4.1e-4,-0.0029 0.0012,-0.0039 0.0024,-0.0056 -1.78e-4,-0.0038 -4.1e-4,-0.0079 -4.1e-4,-0.01165 0,-0.0046 6.8e-5,-0.0087 0,-0.01325 -4.7e-5,-0.0063 -0.001,-0.01268 -0.0012,-0.01889 -1.97e-4,-0.0068 -1.79e-4,-0.01412 -0.0012,-0.0209 h -8.2e-4 c -4.1e-4,-0.0057 0.0012,-0.0092 0.0028,-0.01286 -0.01277,-0.01461 -0.02464,-0.03305 -0.03484,-0.05586 -0.0039,-0.0088 -0.0089,-0.01696 -0.01281,-0.02572 -0.01076,-0.02553 -0.01798,-0.05198 -0.01681,-0.07998 -1.55e-4,-0.01698 -1.84e-4,-0.03407 -8.2e-4,-0.05104 -6.15e-4,-0.01597 -0.0014,-0.03198 -0.0036,-0.04783 -0.0021,-0.01455 -0.0048,-0.02886 -0.0088,-0.04301 -0.03066,-0.107073 0.01724,-0.170777 0.07449,-0.172016 0.04452,-0.001 0.09462,0.03588 0.117737,0.119366 0.0061,0.02211 0.01068,0.04441 0.01402,0.06712 0.0028,0.01998 0.0039,0.04014 0.0048,0.06029 0.0092,-0.01095 0.02034,-0.01728 0.03204,-0.01728 0.0092,0 0.01854,0.0033 0.02643,0.01004 0.0063,-0.0057 0.01261,-0.01146 0.01882,-0.01729 0.01101,-0.0094 0.02247,-0.01798 0.03324,-0.02773 0.0096,-0.0083 0.01917,-0.01681 0.02963,-0.02411 0.003,-0.0021 0.0066,-0.0032 0.0096,-0.0052 2.05e-4,-0.0049 4.1e-4,-0.0096 8.2e-4,-0.01447 0.0022,-0.03502 0.0043,-0.06985 0.006,-0.104896 0.0021,-0.02961 0.0054,-0.05913 0.006,-0.08882 8.2e-4,-0.0207 0.0025,-0.04158 0.0024,-0.06229 -6.15e-4,-0.09903 0.04871,-0.148305 0.09851,-0.148305 0.02668,0 0.0533,0.01426 0.07248,0.0426 -1.45e-4,-0.03573 -1.55e-4,-0.07144 -8.2e-4,-0.107308 -6.15e-4,-0.0636 -0.0016,-0.127747 -0.0036,-0.191307 -0.0023,-0.061 -0.007,-0.121595 -0.01122,-0.182465 -0.0031,-0.06802 -0.0044,-0.135729 -0.0064,-0.203765 -0.0012,-0.03234 -0.0049,-0.06524 -0.01,-0.09726 -0.0039,-0.03804 -0.0068,-0.07589 -0.01161,-0.113738 -0.0077,-0.05547 -0.01279,-0.110515 -0.01642,-0.166389 -0.0062,-0.05151 -0.01296,-0.103228 -0.01441,-0.155135 -6.15e-4,-0.0093 -0.0018,-0.01848 -0.0028,-0.02773 -0.0048,0.01473 -0.02074,0.01655 -0.02923,0.0024 -4.11e-4,0.0074 -8.21e-4,0.01475 -0.0012,0.0221 -0.0014,0.02094 -0.0032,0.04195 -0.0064,0.0627 -2.05e-4,0.0014 -0.0021,0.01469 -0.0036,0.01608 -0.0055,0.0051 -0.01109,0.01218 -0.01841,0.01166 -0.01527,-0.0011 -0.0163,-0.01291 -0.01722,-0.02251 -0.0012,-0.01337 -0.0023,-0.02679 -0.0032,-0.04019 -4.1e-4,0.0046 -8.2e-4,0.01108 -0.0012,0.01286 -10e-4,0.0041 -4.1e-4,0.01019 -0.0044,0.01166 -0.02105,0.008 -0.02672,0.0075 -0.03204,-0.0048 -6.15e-4,0.0035 -0.001,0.007 -0.0016,0.01045 -6.15e-4,0.0029 -0.001,0.0051 -0.0024,0.008 -6.15e-4,0.0019 -0.004,0.01449 -0.0064,0.01487 -0.0094,0.0015 -0.01921,8.64e-4 -0.02843,-0.0016 -0.0036,0.0023 -0.0075,0.0034 -0.01161,0.0036 -0.0082,3.5e-4 -0.01269,-0.0049 -0.01642,-0.01045 -0.001,-0.0014 -0.0018,-0.0036 -0.0024,-0.0052 -0.0012,-0.004 -0.0021,-0.0079 -0.0028,-0.01206 -6.15e-4,0.0032 -8.2e-4,0.0054 -0.0021,0.0088 -6.15e-4,0.0028 -0.0014,0.0054 -0.0024,0.008 -0.0014,0.0038 -0.0021,0.0084 -0.0052,0.01085 -0.0051,0.0038 -0.01167,0.0061 -0.01802,0.006 -0.0018,0 -0.0033,-5.15e-4 -0.0048,-0.0016 -2.05e-4,0.0023 -4.1e-4,0.0046 -8.2e-4,0.0068 -0.0012,0.0069 -0.0032,0.02118 -0.01121,0.02492 -0.0062,0.0029 -0.01333,0.0011 -0.02001,0.0016 -4.1e-4,-5.14e-4 -8.2e-4,-0.0011 -0.0012,-0.0016 -0.0067,0.0023 -0.01298,0.0043 -0.01681,0.0056 -8.2e-5,0.0013 -1.03e-4,0.0023 -4.1e-4,0.0036 -1.62e-4,0.0014 -6.16e-4,0.0022 -8.21e-4,0.0036 -4.1e-4,0.0016 -6.15e-4,0.0029 -0.0012,0.0044 -0.0016,0.0037 -0.0055,0.0104 -0.0096,0.01125 -0.006,0.0012 -0.01265,8.23e-4 -0.01841,-8.02e-4 -0.004,-0.0011 -0.0073,-0.0075 -0.0092,-0.01085 -4.1e-4,-0.001 -8.2e-4,-0.0018 -0.0012,-0.0028 -2.5e-5,0.0075 -2e-6,0.01504 -4.1e-4,0.02251 -7.8e-5,0.0035 -4.1e-4,0.007 -8.2e-4,0.01045 -0.0048,0.03469 -0.04158,0.02922 -0.03484,-0.0048 4.1e-4,-0.0021 8e-5,-0.0039 4.1e-4,-0.006 1.31e-4,-0.0035 -6.2e-5,-0.007 0,-0.01045 -0.0014,-8e-5 -0.0026,-6.8e-4 -0.004,-0.0012 -2e-6,4.12e-4 10e-6,8.03e-4 0,0.0012 -2.05e-4,0.0066 9.8e-5,0.01345 -4.1e-4,0.0201 -0.0016,0.0066 -4.1e-4,0.0061 -0.01441,0.0032 -0.0012,-3.09e-4 -8.21e-4,-0.0024 -0.0012,-0.0036 -2.05e-4,-9.26e-4 -5.9e-5,-0.0019 -4.1e-4,-0.0028 -4.1e-4,-0.0026 -8.2e-4,-0.0032 -0.0012,-0.006 -2.05e-4,-0.0021 -4.1e-4,-0.0035 -8.2e-4,-0.0056 -0.0012,-7e-4 -0.0016,-0.0015 -0.0024,-0.0024 -5.3e-5,5.35e-4 6.8e-5,0.0011 0,0.0016 -1.29e-4,0.0012 -0.0012,0.0025 -0.0012,0.0036 -2.05e-4,0.0052 -0.0021,0.0073 -0.0044,0.0088 v 4.12e-4 c 0,0.01512 -0.01482,0.01512 -0.01482,0 v -0.006 -0.006 c 0,-0.0012 0.001,-0.001 0.0012,-0.002 -2.05e-4,-0.0012 -0.0012,-0.0022 -0.0012,-0.0036 v -0.0052 c 1.03e-4,-0.0024 0.001,-0.004 0.0012,-0.0064 1.4e-4,-0.0022 4.1e-4,-0.0039 4.1e-4,-0.006 3.9e-5,-0.0023 0,-0.0034 0,-0.0056 1.1e-5,-0.0019 0,-0.0038 0,-0.0056 v -0.0064 -0.002 c 0,-0.0028 8.21e-4,-0.005 0.0016,-0.0068 v -4.11e-4 c -9.5e-5,-5.77e-4 -10e-4,-0.001 -0.0012,-0.0016 v -4.12e-4 c -8.21e-4,-0.0036 2.05e-4,-0.0051 0.0012,-0.0072 v -8.03e-4 -0.0088 -0.01085 -0.01246 -0.0092 -0.01125 -0.01045 -0.0092 -0.0076 -0.008 -0.0076 c 2e-6,-0.0039 -2e-6,-0.0078 0,-0.01166 4e-6,-0.0041 -2.7e-5,-0.008 0,-0.01206 2.8e-5,-0.0038 4.1e-4,-0.0071 8.2e-4,-0.01085 1.46e-4,-0.0035 2.9e-5,-0.0073 4.1e-4,-0.01085 2.05e-4,-0.0056 3.3e-5,-0.0112 4.1e-4,-0.01688 7.6e-5,-0.0088 4.1e-4,-0.01742 -8.2e-4,-0.02612 -1.56e-4,-0.0011 -0.0012,-0.0062 -0.0016,-0.0076 -2.05e-4,-9.26e-4 -0.001,-0.0015 -0.0012,-0.0024 -6.15e-4,-0.0024 -0.0012,-0.0052 -0.0016,-0.0076 -8.2e-4,-0.0046 -0.0016,-0.009 -0.0012,-0.01366 4.1e-4,-0.0051 0.0014,-0.01022 0.0024,-0.01527 6.15e-4,-0.0042 8.2e-4,-0.0083 0.0012,-0.01246 6.15e-4,-0.004 10e-4,-0.0081 0.0016,-0.01206 1.9e-5,-1.38e-4 -1.8e-5,-2.68e-4 0,-4.12e-4 -6.15e-4,-0.0078 -4.1e-4,-0.01598 8.2e-4,-0.02452 -4.1e-4,-0.0018 -6.15e-4,-0.0034 -8.2e-4,-0.0052 -8.4e-5,-0.0018 -0.001,-0.0031 -0.0012,-0.0048 -0.001,-0.0075 0.0018,-0.01192 0.0056,-0.01246 v -0.0016 h 0.0012 8.2e-4 c 0.0073,-0.02255 0.02082,-0.04673 0.04205,-0.07154 0.01302,-0.01516 -0.0029,0.004 0.006,-0.0068 0.0082,-0.01097 0.01679,-0.02144 0.02483,-0.03255 0.01078,-0.01486 0.02155,-0.03004 0.03324,-0.04421 0.007,-0.0084 0.0137,-0.0172 0.01882,-0.02693 0.0042,-0.0068 0.0081,-0.01359 0.01121,-0.0209 0.0018,-0.0052 0.0035,-0.0109 0.0032,-0.01728 0.001,-0.01819 -0.001,-0.03645 -8.2e-4,-0.05466 -6.15e-4,-0.02019 -10e-4,-0.04054 -0.0024,-0.06069 -4.1e-4,-0.0067 -8.2e-4,-0.013 -8.2e-4,-0.01929 z m 7.309267,0 c 0.01591,0.01101 0.03245,0.02104 0.04806,0.03255 0.151309,0.111549 0.300605,0.227277 0.426494,0.368145 0.06016,0.06644 0.119887,0.133288 0.185013,0.194924 0.104947,0.09885 0.208653,0.199398 0.305154,0.306653 0.149025,0.163617 0.294376,0.33041 0.438507,0.498362 0.11803,0.133054 0.237475,0.264794 0.340395,0.410345 0.01624,0.02226 0.03072,0.04572 0.04645,0.06832 v -1.879306 z m -4.67141,0.136647 c 0.0014,0.02144 0.0022,0.04278 0.0028,0.0643 4.1e-4,0.02241 0.0014,0.04511 8.2e-4,0.06752 -4.1e-4,0.0227 -0.0047,0.04471 -0.01122,0.06631 0.0036,9.88e-4 0.0072,0.0015 0.01081,0.0028 4.1e-4,-0.0029 8.2e-4,-0.0055 0.0012,-0.0084 1.52e-4,-10e-4 0.0026,-0.02048 0.0048,-0.0209 0.0027,-5.35e-4 0.0056,-7.82e-4 0.0084,-8.02e-4 0.0084,-7.3e-5 0.01671,0.0019 0.02483,0.004 0.0018,5.35e-4 0.001,0.0036 0.0012,0.0056 2.01e-4,0.0027 1.62e-4,0.0057 0,0.0092 0.0016,2.47e-4 0.0033,7.61e-4 0.0048,0.0016 0.0025,-0.02281 0.0043,-0.04566 0.008,-0.06832 0.0072,-0.03988 0.01573,-0.07942 0.02563,-0.118562 z m -0.229066,2.500252 c -0.0026,10e-4 -0.0053,0.0016 -0.008,0.0024 0.0012,0.02482 0.0023,0.04954 0.0036,0.07435 0.001,10e-4 0.0022,0.0025 0.0032,0.0036 -6e-6,-4.12e-4 -2e-6,-8.23e-4 0,-0.0012 7e-5,-0.01152 -2.05e-4,-0.02304 4.1e-4,-0.03456 2.05e-4,-0.01416 -2.05e-4,-0.02845 8.2e-4,-0.0426 2.9e-5,-6.17e-4 -2.8e-5,-8.23e-4 0,-0.0021 z m 5.196419,0.269275 c 0.01841,0.421957 0.04633,0.843802 0.07168,1.265195 0.02046,0.33713 0.03567,0.674801 0.04565,1.0124 0.0074,0.309139 0.0085,0.618388 0.01001,0.927596 0.0034,0.177753 -0.0025,0.355621 0.0028,0.533329 8.21e-4,0.02305 0.0018,0.04608 0.0028,0.06913 0.01977,-0.02058 0.06248,-0.06836 0.03284,-0.04421 0.0139,-0.02482 0.02306,-0.05096 0.03444,-0.07717 0.005,-0.01156 0.0064,-0.0136 0.0084,-0.01728 -4.1e-4,-7e-5 -10e-4,8.23e-4 -0.0012,-8.23e-4 -0.0018,-0.01196 0.0064,-0.02332 0.0096,-0.03496 0.0053,-0.01899 0.01074,-0.03809 0.01601,-0.05707 0.01363,-0.04899 0.02697,-0.09807 0.04045,-0.147097 0.02749,-0.09596 0.05114,-0.192334 0.07048,-0.290174 0.02007,-0.15542 0.02249,-0.312194 0.02683,-0.468622 0.0059,-0.243628 0.0083,-0.48749 0.01001,-0.731064 -0.0012,-0.168495 0.006,-0.337243 -0.0028,-0.505598 -0.0094,-0.121661 -0.02121,-0.24364 -0.04605,-0.363321 -0.03557,-0.173915 -0.07532,-0.346923 -0.116133,-0.519663 -0.02503,-0.106791 -0.05641,-0.211899 -0.0897,-0.316299 -0.01087,-0.04087 -0.03133,-0.07744 -0.05086,-0.114543 -0.02267,-0.04142 -0.04674,-0.08225 -0.07529,-0.119767 z m -5.260092,2.593491 c 1.54e-4,0.0042 -4.1e-4,0.0083 -0.0012,0.01247 -6.5e-5,4.12e-4 6.6e-5,4.12e-4 0,8.23e-4 -1.35e-4,8.23e-4 -6.15e-4,0.0021 -8.2e-4,0.0028 2.3e-5,-4.11e-4 -2.2e-5,-0.001 0,-0.0016 8.2e-4,-0.02107 -0.008,-0.0149 -0.01841,-0.0044 0.0012,0.0019 0.0021,0.0042 0.0021,0.0076 4.7e-5,0.0087 0.001,0.01739 0.0012,0.02612 6.15e-4,-2.03e-4 6.15e-4,-4.11e-4 0.0024,-4.11e-4 0.0024,-4.7e-5 0.0044,0.0034 0.0064,0.0064 -1.88e-4,-0.0019 2.05e-4,-0.0038 -4.1e-4,-0.0056 -8.2e-4,-0.0075 0.0026,-0.01125 0.0064,-0.01125 0.0034,4e-6 0.0062,0.004 0.0076,0.01004 5.6e-5,-2.05e-4 -5.5e-5,-6.17e-4 0,-8.23e-4 1.32e-4,-10e-4 8.21e-4,-0.0021 8.21e-4,-0.0032 0,-0.0027 -0.001,-0.0054 -0.0012,-0.008 -0.0014,-0.01031 -0.0032,-0.02066 -0.0048,-0.03095 z m 0.416483,0.302636 c -0.02843,0.0073 -0.05115,0.02152 -0.06928,0.0414 0.0014,0.01181 0.0032,0.02363 0.0048,0.03537 0.0027,0.01965 0.0058,0.03909 0.0088,0.05868 6.15e-4,0.0036 0.0012,0.0072 0.0016,0.01084 0.0072,-0.0036 0.01632,-0.0026 0.03044,0.0048 0.0037,0.0019 0.0065,0.009 0.0084,0.01607 0.0031,-0.05766 0.0075,-0.113961 0.01521,-0.167193 z m -0.03925,0.491529 c 0.0074,0.02054 0.01337,0.03943 0.02202,0.06149 0.007,0.01784 0.01384,0.03563 0.02082,0.05345 4.1e-4,6.18e-4 8.21e-4,8.23e-4 0.0012,0.0021 -0.0022,-0.01825 -0.0051,-0.03641 -0.0072,-0.05466 -0.0021,-0.01788 -0.0027,-0.03469 -0.0044,-0.05225 -0.0071,0.0014 -0.01737,-0.0021 -0.03244,-0.01004 z m 0.09972,0.656711 c -8.21e-4,0.003 -4.11e-4,4.12e-4 -0.0024,0.0072 -0.0018,0.0075 -0.0081,0.02974 -0.0052,0.02251 0.0031,-0.0076 0.0038,-0.01578 0.006,-0.02371 4.1e-4,-8.23e-4 0.0012,-0.0034 0.0012,-0.0024 9.5e-5,-0.0014 -2.05e-4,-0.0042 4.11e-4,-0.0036 z m -4.11e-4,0.0036 c -4.1e-4,0.0056 -8.2e-4,0.01101 -0.0021,0.01648 6.15e-4,-0.0032 0.001,-0.0077 0.0016,-0.0092 2.05e-4,-0.0024 -2.05e-4,-0.0044 4.1e-4,-0.0072 z m 5.06026,0.335994 c -5.7e-5,0.02031 0.0021,0.03418 0.0092,0.02974 0.0062,-0.0038 -0.0016,-0.01508 -0.0048,-0.0217 -0.0014,-0.0028 -0.0031,-0.0052 -0.0044,-0.008 z m -5.477544,0.372163 c -2.4e-5,0.0014 2.7e-5,0.003 0,0.0044 l 4.1e-4,-4.11e-4 c -9.8e-5,-0.0014 9.3e-5,-0.0025 -4.1e-4,-0.004 z m 6.694954,0.251995 c -0.04989,0.05604 -0.102182,0.1101 -0.156981,0.161163 -0.03023,0.02685 -0.05929,0.05502 -0.09051,0.08078 -0.04821,0.03987 -0.09868,0.07682 -0.150174,0.112131 h 0.39766 z m -2.825273,0.211 c -0.01117,0.04807 -0.0234,0.09585 -0.03684,0.143077 h 0.128148 c -0.0333,-0.04577 -0.0642,-0.09316 -0.09131,-0.143077 z" />
    </clipPath>
    <clipPath
       clipPathUnits="userSpaceOnUse"
       id="clipPath538">
      <path
         id="path539"
         style="fill:#ff0000;fill-opacity:1;fill-rule:nonzero;stroke:none;stroke-width:0.264583"
         d="m 17.916658,31.379724 c 0.01267,0.06978 0.02015,0.145462 0.02015,0.228925 v 0.222726 0.239779 0.182935 0.159163 0.04599 c 0.01852,0.02302 0.03514,0.05344 0.04806,0.09198 0.0062,0.01836 0.01109,0.03687 0.01499,0.05581 0.0045,0.02463 0.0057,0.04946 0.0067,0.07441 7.14e-4,0.02085 0.001,0.04166 0.001,0.06253 6.88e-4,0.01445 0.0028,0.02909 0.0047,0.04341 4.76e-4,0.0036 8.2e-4,0.0072 0.001,0.01085 0.01745,0.02627 0.03134,0.06033 0.03876,0.10387 0.0054,0.03181 0.011,0.06365 0.0155,0.0956 0.0055,0.04166 0.01063,0.08347 0.01034,0.125574 2.91e-4,0.02731 0.0011,0.05487 0.0021,0.08217 0.0012,0.03642 0.0034,0.0726 0.0036,0.109038 v 0.0801 0.09095 0.10542 0.113171 0.09198 0.09457 0.109556 0.110069 0.110072 0.08682 c 0,0.03605 -3e-6,0.07195 0,0.108006 5e-6,0.04547 -1.9e-5,0.09096 0,0.136424 2.6e-5,0.05178 -1.34e-4,0.103249 0,0.15503 1.55e-4,0.04664 6.62e-4,0.0934 0.001,0.140042 6.09e-4,0.04185 10e-4,0.08376 0.0031,0.125574 0.0015,0.03789 0.0016,0.07577 0.0016,0.113688 v 0.09767 c -1e-6,0.02997 3e-6,0.05943 0,0.0894 -3e-6,0.02806 2.3e-5,0.05617 0,0.08423 -2.3e-5,0.0227 -3.7e-4,0.04551 -5.29e-4,0.06821 -1.5e-4,0.0227 -5.29e-4,0.04552 -0.001,0.06821 -7.94e-4,0.02529 -0.002,0.05038 -0.0057,0.07545 -0.0031,0.02006 -0.0068,0.04017 -0.01137,0.05994 -0.0018,0.0072 -0.0035,0.01445 -0.0052,0.0217 0.03413,0.03006 0.05891,0.08487 0.05891,0.163814 v 0.06201 c 0.0012,0.01979 0.0025,0.03963 0.0036,0.05943 0.0043,0.07757 -0.0165,0.132802 -0.04806,0.164849 6.5e-5,2.64e-4 -7.3e-5,7.93e-4 0,0.0011 7.14e-4,0.0024 0.0014,0.0045 0.0021,0.0067 0.0017,0.0031 0.0076,0.01572 0.0098,0.0186 0.0082,0.01363 0.01585,0.02767 0.02325,0.04186 0.0079,0.01754 0.01287,0.02711 0.02067,0.04444 8.47e-4,0.0021 0.0012,0.0045 0.0021,0.0067 0.0086,0.0084 0.01736,0.01707 0.02584,0.02739 0.0084,0.01024 0.01724,0.02043 0.02584,0.03049 0.01144,0.01333 0.0229,0.02678 0.03411,0.04031 0.01604,0.01942 0.02912,0.04075 0.03824,0.06408 0.0033,0.0033 0.0067,0.0065 0.0098,0.0098 0.06521,0.06838 0.08008,0.136369 0.06408,0.185002 3.7e-4,5.29e-4 9.53e-4,0.0011 0.001,0.0016 0.01432,0.01974 0.02887,0.03933 0.04341,0.05891 0.01564,0.0222 0.03094,0.04493 0.04651,0.06718 0.01739,0.02598 0.03506,0.05185 0.04961,0.07958 0.01071,0.019 0.02274,0.0371 0.03204,0.05685 1.09e-4,2.65e-4 -0.001,-1.32e-4 -0.001,-5.29e-4 0.01062,0.01627 0.02144,0.03248 0.03152,0.04909 0.01047,0.01762 0.01929,0.03595 0.02739,0.05478 0.0018,0.0039 0.0034,0.0079 0.0052,0.01188 0.03073,0.01498 0.06231,0.04007 0.09198,0.08062 0.0072,0.0099 0.005,0.0075 0.0052,0.0078 -5.3e-4,-7.93e-4 -2.04e-4,-5.29e-4 0.0026,0.0031 2.61e-4,2.62e-4 2.91e-4,7.94e-4 5.29e-4,0.0011 0.01234,0.01625 0.02397,0.03258 0.03359,0.05064 0.03677,0.06909 0.01685,0.08599 -0.02481,0.08268 0.0047,0.0097 0.0098,0.01783 0.01395,0.02894 4.49e-4,0.0013 9.52e-4,0.0024 10e-4,0.0036 0.004,0.0098 0.0082,0.01963 0.01344,0.02894 0.0069,0.01492 0.01667,0.0286 0.02377,0.04341 0.009,0.01664 0.01889,0.03236 0.02791,0.04909 0.0069,0.01291 0.0144,0.02553 0.0217,0.03824 0.0124,0.02138 0.02481,0.04269 0.03411,0.06563 0.0068,0.01635 0.01359,0.03311 0.02119,0.04909 0.0038,0.0093 0.0085,0.01815 0.01344,0.02687 0.03699,0.02146 0.07192,0.06653 0.09353,0.138493 0.002,0.0066 0.0033,0.01304 0.0052,0.01963 8e-5,1.56e-4 -1.17e-4,7.94e-4 0,0.0011 h 5.29e-4 c 0.005,0.0061 0.0084,0.01386 0.0124,0.02066 0.0069,0.0097 0.01334,0.01987 0.01964,0.02997 0.0068,0.01246 0.01209,0.02162 0.01809,0.03101 0.0051,0.0092 0.0096,0.01397 0.0186,0.02739 0.0106,0.015 0.01792,0.03243 0.02532,0.04857 0.0077,0.01603 0.01191,0.03379 0.01602,0.05013 -2.91e-4,-7.94e-4 3.71e-4,0.0013 5.29e-4,0.0021 2.65e-4,7.93e-4 0.001,0.0013 0.001,0.0021 0.02172,0.01643 0.04224,0.04033 0.05943,0.07286 0.02414,7.94e-4 0.04828,0.0021 0.07235,0.0031 0.03621,0.0016 0.07233,0.005 0.108521,0.0072 0.03146,-0.02289 0.07754,-0.03844 0.138493,-0.03928 0.05212,-7.94e-4 0.103954,-0.0019 0.156063,-0.0031 0.02629,-5.3e-4 0.05281,-7.94e-4 0.07906,-5.3e-4 0.02629,2.25e-4 0.05279,7.94e-4 0.07906,0.0016 0.06943,0.0016 0.13882,0.0048 0.208256,0.0057 0.0392,7.94e-4 0.07813,0.0016 0.117306,0.0031 0.03495,0.0011 0.06994,0.0013 0.104903,0.0016 0.03242,0 0.06472,-1.1e-5 0.09715,0 0.02253,10e-6 0.04517,-7.7e-5 0.0677,0 0.02019,8.7e-5 0.04027,5.29e-4 0.06046,0.0011 0.02502,5.29e-4 0.0505,7.94e-4 0.07545,0.0031 0.02178,0.0021 0.04298,0.005 0.0646,0.0083 0.02165,0.0038 0.04293,0.0096 0.06356,0.01707 0.02945,-0.03149 0.07759,-0.05575 0.149861,-0.05994 0.0094,-5.29e-4 0.01902,-7.94e-4 0.02842,-0.0016 0.01732,-0.0013 0.03432,-0.0024 0.05168,-0.0026 0.0058,-6.4e-5 0.01178,-1.38e-4 0.01757,0 0.06195,0.0016 0.108765,0.01781 0.14056,0.04186 0.0143,-3e-6 0.0286,-8e-6 0.04289,0 0.03142,1.8e-5 0.06264,-6.6e-5 0.09405,0 0.03584,9.3e-5 0.07165,2.4e-5 0.107487,5.29e-4 0.03877,5.29e-4 0.07754,0.0011 0.116272,0.0031 0.03082,0.0019 0.06161,0.0038 0.0925,0.0041 0.03567,0.0013 0.07171,0.0033 0.10697,0.0093 0.01285,0.0021 0.02573,0.0048 0.03876,0.0057 0.01776,-9.5e-5 0.03547,-4.5e-5 0.05323,-5.29e-4 0.01605,-5.29e-4 0.03206,-0.0019 0.04806,-0.0031 0.02251,-0.0024 0.04442,-0.0088 0.06718,-0.0093 0.02,-5.29e-4 0.03996,-0.0013 0.05994,-0.0026 0.02863,-0.0016 0.05709,-0.0037 0.08578,-0.0031 h 0.09353 0.09922 0.08682 c 0.02828,5e-6 0.05647,-8e-6 0.08475,0 0.03374,2.1e-5 0.06755,-6.1e-5 0.101286,0 0.04908,1.03e-4 0.0982,0.0011 0.147278,0.0016 0.03572,5.29e-4 0.07128,0.0011 0.10697,0.0026 0.02353,0.0013 0.04723,0.0036 0.0708,0.0031 h 0.09198 0.102836 0.09819 0.09095 0.09715 0.09509 0.0863 0.08837 c 0.03157,0 0.063,-7e-6 0.09457,0 0.03299,1.1e-5 0.06623,-5.2e-5 0.09922,0 0.03664,6.7e-5 0.07343,1.38e-4 0.11007,5.3e-4 0.03179,5.29e-4 0.0633,7.93e-4 0.09509,0.0021 0.02533,0.0011 0.05062,0.003 0.07596,0.0031 h 0.08837 c 0.02928,0 0.05857,5e-6 0.08785,0 0.02214,0 0.04401,2.1e-5 0.06615,0 0.01993,-1.6e-5 0.04002,9.5e-5 0.05994,0 0.02191,-1.14e-4 0.04372,-4.8e-5 0.06563,-5.29e-4 0.03105,-5.29e-4 0.06199,-0.0011 0.09302,-0.0026 0.0267,-0.0016 0.05334,-0.0033 0.0801,-0.0026 0.02751,1.38e-4 0.05518,5.29e-4 0.08268,0.0011 0.02334,7.94e-4 0.04656,0.0019 0.06976,0.0047 0.0057,5.29e-4 0.01138,0.0011 0.01707,0.0016 0.03232,-0.015 0.07484,-0.02273 0.127643,-0.0181 0.01252,0.0011 0.02535,0.0024 0.03772,0.0047 0.01458,0.003 0.03258,0.0066 0.04702,0.01241 0.0069,-0.0016 0.01376,-0.004 0.02066,-0.0057 0.015,-0.0035 0.02949,-0.0092 0.04444,-0.01291 0.02336,-0.0064 0.04582,-0.01566 0.07028,-0.01757 0.01365,-0.0013 0.02765,-0.0024 0.04134,-0.0021 0.01368,2.64e-4 0.02735,0.0019 0.04083,0.0052 7.93e-4,2.01e-4 0.0034,1.3e-4 0.0026,5.29e-4 0.0029,2.65e-4 0.0067,0.0011 0.0067,0.0011 h 0.0021 5.29e-4 c 0.06987,0 0.120398,0.01955 0.151929,0.04754 0.03651,-6.4e-5 0.07305,3.4e-5 0.109553,0 0.04064,-3.2e-5 0.08132,8e-6 0.121957,0 0.04557,-5.29e-4 0.09087,7.93e-4 0.136425,0.0021 0.057,0.0019 0.11403,0.0021 0.17105,0.0026 0.05454,2.65e-4 0.109273,0.0013 0.163814,0.0016 0.03676,1.03e-4 0.07331,-1.9e-5 0.11007,0 0.03157,-2.65e-4 0.06301,7.93e-4 0.09457,-5.29e-4 0.03489,-0.0016 0.06998,-0.0027 0.104902,-0.0036 0.03159,-7.94e-4 0.06297,-0.0019 0.09457,-0.0021 0.04718,-0.0016 0.09439,-0.0026 0.141594,-0.0036 0.05837,-0.0011 0.116809,-0.0019 0.175184,-0.0021 0.04958,-2.04e-4 0.09925,-5.3e-4 0.148825,-5.3e-4 0.02975,-3.4e-5 0.05965,8e-6 0.0894,0 0.04031,-7e-6 0.08061,0 0.120922,0 h 0.131258 c 0.03894,-10e-5 0.07793,0.0011 0.116789,-0.0021 0.04481,-0.0031 0.09001,-0.0054 0.134874,-0.0072 0.03203,-5.29e-4 0.06362,-0.0024 0.0956,-0.0041 0.02606,-0.0016 0.05249,-0.0024 0.07855,-0.0036 0.03793,-0.0021 0.07571,-0.0037 0.113688,-0.0047 0.03136,-2.65e-4 0.06275,-0.0011 0.09405,-0.0031 0.0053,-2.64e-4 0.01069,-2.64e-4 0.01603,-5.29e-4 0.0069,-0.01786 0.01685,-0.03645 0.03049,-0.05581 0.0042,-0.006 0.0053,-0.01376 0.0088,-0.02016 0.0084,-0.02122 0.01751,-0.04249 0.02946,-0.06201 0.0076,-0.01188 0.01418,-0.02394 0.02119,-0.03617 0.0037,-0.0039 0.0053,-0.0097 0.0078,-0.01447 0.0047,-0.0092 0.0096,-0.0186 0.01498,-0.02739 0.0079,-0.01275 0.01588,-0.02543 0.02376,-0.03824 0.0097,-0.01495 0.0213,-0.02928 0.02894,-0.03772 0.0056,-0.0071 0.01159,-0.01617 0.02119,-0.02791 0.01537,-0.01762 0.03148,-0.0351 0.05116,-0.04806 0.0249,-0.01598 0.0516,-0.02794 0.08113,-0.03204 7.94e-4,-1.06e-4 0.0013,-2.65e-4 0.0021,-5.29e-4 0.05466,-0.06526 0.111588,-0.129109 0.183451,-0.176216 0.05164,-0.03039 0.09343,-0.07644 0.147278,-0.10387 0.170183,-0.0867 0.328433,-0.129937 0.467154,-0.139528 0.05352,-0.0037 0.103018,-7.4e-5 0.150381,0.0057 v -5.752621 z m 6.923607,6.585643 c 0.0013,5e-5 0.0033,2.64e-4 0.0047,0 -0.0019,5.5e-5 -0.0038,-6.4e-5 -0.0047,0 z m 4.228685,0.460954 c -0.0037,5.29e-4 -0.0073,0.0016 -0.01085,0.0026 -0.0069,0.0033 -0.01058,0.0089 -0.01654,0.01291 7.93e-4,-2.65e-4 0.0019,-1.4e-5 0.0026,-5.29e-4 0.0076,-0.0027 0.0209,-0.0085 0.02479,-0.01241 z m -0.119891,0.0026 c -5.29e-4,0.0053 -0.0011,0.0028 -0.0016,5.29e-4 0.0019,0.0034 -2.65e-4,0.0021 0.0052,0.01085 2.65e-4,2.65e-4 7.94e-4,5.29e-4 0.0011,0.0011 -0.0087,-0.03378 -0.0039,-0.01791 -0.0047,-0.01241 z m 0.119891,1.058849 c -0.02416,0.0038 -0.04824,0.0082 -0.07235,0.01138 -0.233481,0.02991 -0.467844,0.04469 -0.703318,0.04599 -0.387368,0.0067 -0.775189,0.0045 -1.162719,0.0072 0.08476,0.119205 0.163401,0.244229 0.251148,0.360701 -0.05019,0.06696 -0.09717,0.136829 -0.145728,0.205155 0.01934,0.0073 0.03559,0.01757 0.04186,0.03721 0.08636,0.270253 0.177282,0.564525 0.125574,0.842843 0.188124,0.07544 0.350528,0.207468 0.38344,0.457851 0.02476,0.188518 -0.09454,0.374986 -0.195853,0.535887 -0.08818,0.140042 -0.421798,0.222385 -0.550354,0.265615 -0.112832,0.02101 -0.225039,0.04563 -0.338482,0.06305 -0.268753,0.04126 -0.543028,0.06293 -0.813903,0.08113 -0.178734,0.01201 -0.35751,0.01857 -0.5364,0.02635 0.04554,0.0658 0.07126,0.142126 0.05581,0.23151 -0.04393,0.254159 -0.283498,0.43892 -0.478523,0.607716 -0.03238,0.02803 -0.539401,0.08085 -0.573091,0.08475 -0.668436,0.06412 -1.340254,0.0822 -2.011247,0.09767 -0.302476,0.0058 -0.604971,0.0088 -0.907438,0.01241 0.02396,0.04296 0.04596,0.08695 0.06253,0.133326 0.05462,0.15294 -0.174857,0.328811 -0.285254,0.415478 -0.104923,0.0918 -0.209824,0.183872 -0.324528,0.263552 -0.115982,0.07368 -0.235623,0.148111 -0.375171,0.168981 -0.178092,0.02663 -0.315472,0.0034 -0.461471,-0.07545 -0.07973,0.190375 -0.189884,0.380121 -0.406177,0.4377 -0.110225,0.02936 -0.227451,0.0037 -0.342098,-0.0021 -0.01231,0.01458 -0.02491,0.02884 -0.03721,0.04341 -0.117512,0.147293 -0.242427,0.288565 -0.374654,0.422714 -0.0063,0.05884 -0.01261,0.118253 -0.0217,0.174665 -0.01155,0.07154 -0.02789,0.141808 -0.04186,0.212907 -0.08645,0.219975 -0.128704,0.431819 -0.446484,0.48886 -0.171803,0.03084 -0.305295,-2.17e-4 -0.411344,-0.06925 -0.06862,0.04541 -0.127582,0.07788 -0.199988,0.119372 -0.02514,0.01344 -0.05025,0.02701 -0.07545,0.04031 -0.02237,0.260882 -0.04467,0.270582 -0.453719,0.260451 -0.01387,0.01 -0.0278,0.02003 -0.04134,0.03049 -0.06693,0.05172 -0.13259,0.09254 -0.196371,0.125058 0.0055,0.08033 0.0099,0.16062 0.0067,0.24081 H 29.06895 Z m -13.982094,0.626835 v 0.33383 c 0.01808,-2.64e-4 0.03618,-1.3e-5 0.05426,-5.29e-4 -0.0201,-0.110778 -0.03998,-0.221641 -0.05426,-0.333314 z m 11.964127,1.841233 c 0.0081,0.0073 0.0173,0.01402 0.02479,0.0217 -0.0021,-0.006 -1.03e-4,-0.01638 -0.0062,-0.0181 -0.0061,-0.0016 -0.01246,-0.0021 -0.0186,-0.0036 z m -2.386417,1.196308 c 0.0039,0.0043 0.0093,0.008 0.01291,0.01241 -0.0024,-0.0037 -0.0031,-0.0092 -0.0072,-0.01085 -0.0019,-7.93e-4 -0.0039,-7.93e-4 -0.0057,-0.0016 z m -9.57771,0.307475 v 3.433898 h 0.700733 c -0.0026,-0.01487 -0.0049,-0.02952 -0.0078,-0.04444 -0.04891,-0.330095 -0.08386,-0.6623 -0.08372,-0.996321 9e-5,-0.215929 0.0086,-0.300849 0.02119,-0.515212 0.003,-0.02815 0.0074,-0.05615 0.01085,-0.08423 -0.06988,-0.361646 -0.134774,-0.7244 -0.164848,-1.091925 -0.021,-0.217588 -0.04096,-0.435837 -0.05323,-0.654222 -0.103238,-0.0059 -0.05775,-0.0033 -0.176215,-0.0098 -0.09142,-0.0049 -0.172968,-0.0186 -0.247014,-0.03772 z m 5.475635,0.01447 c 0.0092,0.0068 0.01803,0.01413 0.02739,0.02066 -0.0083,-0.0066 -0.01531,-0.01503 -0.02481,-0.01963 -0.001,-5.29e-4 -0.0016,-5.29e-4 -0.0026,-0.0011 z m 0.236678,0.544669 c -0.01445,0.0019 -0.02895,0.0038 -0.04341,0.0057 0.01659,0.0048 0.03104,0.0016 0.04341,-0.0057 z m -4.813143,2.826183 c -0.0019,0.0039 -0.0037,0.008 -0.0057,0.01188 -5.03e-4,0.008 0.0039,0.03141 0.0047,0.02379 9.53e-4,-0.0118 0.0012,-0.02381 0.001,-0.03566 z" />
    </clipPath>
  </defs>
  <g
     inkscape:label="Layer 1"
     inkscape:groupmode="layer"
     id="layer1">
    <path
       style="fill:#313131;stroke-width:0.05;fill-opacity:1;stroke:#000000;stroke-opacity:1;stroke-dasharray:none"
       d="m 19.975601,24.983633 1.085262,-2.000952 h 8.682095 l 1.062651,2.000952 0.0113,11.123932 -1.073957,1.989648 h -8.682087 l -1.085262,-1.989648 z"
       id="path8"
       clip-path="url(#clipPath137)"
       inkscape:export-filename="path8.pdf"
       inkscape:export-xdpi="10000"
       inkscape:export-ydpi="10000" />
    <rect
       style="fill:#fdfdfd;stroke:#ffffff;stroke-width:0.216362;stroke-dasharray:none;stroke-opacity:1"
       id="rect19"
       width="7.1120448"
       height="2.4650803"
       x="20.487793"
       y="25.762924" />
    <circle
       style="fill:#fdfdfd;stroke:#ffffff;stroke-width:0.0624851;stroke-opacity:1"
       id="path19"
       cx="22.35729"
       cy="32.494137"
       r="0.2" />
    <circle
       style="fill:#fdfdfd;stroke:#ffffff;stroke-width:0.0624851;stroke-opacity:1"
       id="circle19"
       cx="23.671938"
       cy="31.237364"
       r="0.2" />
    <circle
       style="fill:#fdfdfd;stroke:#ffffff;stroke-width:0.0624851;stroke-opacity:1"
       id="circle20"
       cx="21.150127"
       cy="31.233231"
       r="0.2" />
    <circle
       style="fill:#fdfdfd;stroke:#ffffff;stroke-width:0.0624851;stroke-opacity:1"
       id="circle21"
       cx="22.361423"
       cy="30.013666"
       r="0.2" />
    <circle
       style="fill:#fdfdfd;stroke:#ffffff;stroke-width:0.0624851;stroke-opacity:1"
       id="circle22"
       cx="25.548824"
       cy="32.543743"
       r="0.176" />
    <circle
       style="fill:#fdfdfd;stroke:#ffffff;stroke-width:0.0624851;stroke-opacity:1"
       id="circle23"
       cx="25.548826"
       cy="31.530884"
       r="0.2" />
    <circle
       style="fill:#fdfdfd;stroke:#ffffff;stroke-width:0.0624851;stroke-opacity:1"
       id="circle24"
       cx="25.552959"
       cy="30.708197"
       r="0.2" />
    <circle
       style="fill:#fdfdfd;stroke:#ffffff;stroke-width:0.0624851;stroke-opacity:1"
       id="circle25"
       cx="22.361422"
       cy="31.237364"
       r="0.2" />
    <path
       sodipodi:type="star"
       style="fill:#000000;fill-opacity:0.491272;fill-rule:evenodd;stroke:none;stroke-width:0.1;stroke-dasharray:none;stroke-opacity:1"
       id="path446"
       inkscape:flatsided="true"
       sodipodi:sides="3"
       sodipodi:cx="20.112032"
       sodipodi:cy="38.820896"
       sodipodi:r1="8.9790993"
       sodipodi:r2="4.4895496"
       sodipodi:arg1="-0.070379649"
       sodipodi:arg2="0.9768179"
       inkscape:rounded="0"
       inkscape:randomized="0"
       d="M 29.068902,38.189472 16.180426,46.893486 15.086767,31.379731 Z"
       inkscape:transform-center-x="-1.9658025"
       inkscape:transform-center-y="0.31571164"
       transform="translate(1.9410449,0.14031649)"
       clip-path="url(#clipPath538)" />
    <text
       xml:space="preserve"
       style="font-size:0.529167px;fill:#ffffff;stroke:#ffffff;stroke-width:0.02;stroke-opacity:1;fill-opacity:1;stroke-dasharray:none"
       x="28.717983"
       y="28.689924"
       id="text29"><tspan
         sodipodi:role="line"
         id="tspan29"
         style="font-size:0.529167px;stroke-width:0.02;stroke:#ffffff;stroke-opacity:1;fill:#ffffff;fill-opacity:1;stroke-dasharray:none"
         x="28.717983"
         y="28.689924">START</tspan></text>
    <text
       xml:space="preserve"
       style="font-size:0.529167px;fill:#fdfdfd;stroke:#ffffff;stroke-width:0.02;stroke-opacity:1;stroke-dasharray:none"
       x="28.716892"
       y="32.816273"
       id="text30"><tspan
         sodipodi:role="line"
         id="tspan30"
         style="font-size:0.529167px;stroke-width:0.02;stroke:#ffffff;stroke-opacity:1;stroke-dasharray:none"
         x="28.716892"
         y="32.816273">STOP</tspan></text>
    <text
       xml:space="preserve"
       style="font-style:normal;font-variant:normal;font-weight:normal;font-stretch:normal;font-size:0.352777px;line-height:0;font-family:Candara;-inkscape-font-specification:Candara;font-variant-ligatures:normal;font-variant-caps:normal;font-variant-numeric:normal;font-variant-east-asian:normal;fill:#ffffff;stroke:#ffffff;stroke-width:0.02;fill-opacity:1;stroke-opacity:1;stroke-dasharray:none"
       x="22.121769"
       y="29.513565"
       id="text31"><tspan
         sodipodi:role="line"
         id="tspan31"
         style="font-style:normal;font-variant:normal;font-weight:normal;font-stretch:normal;font-size:0.352777px;line-height:0;font-family:Candara;-inkscape-font-specification:Candara;font-variant-ligatures:normal;font-variant-caps:normal;font-variant-numeric:normal;font-variant-east-asian:normal;stroke-width:0.02;fill:#ffffff;fill-opacity:1;stroke:#ffffff;stroke-opacity:1;stroke-dasharray:none"
         x="22.121769"
         y="29.513565">UP</tspan></text>
    <text
       xml:space="preserve"
       style="font-style:normal;font-variant:normal;font-weight:normal;font-stretch:normal;font-size:0.352777px;font-family:Candara;-inkscape-font-specification:Candara;fill:#fdfdfd;stroke:#ffffff;stroke-width:0.02;stroke-dasharray:none;stroke-opacity:1"
       x="20.895748"
       y="33.224239"
       id="text32"><tspan
         sodipodi:role="line"
         id="tspan32"
         style="font-style:normal;font-variant:normal;font-weight:normal;font-stretch:normal;font-family:Candara;-inkscape-font-specification:Candara;stroke-width:0.02;stroke-dasharray:none;stroke:#ffffff;stroke-opacity:1"
         x="20.895748"
         y="33.224239">DOWN/CLEAR/BACK</tspan></text>
    <text
       xml:space="preserve"
       style="font-style:normal;font-variant:normal;font-weight:normal;font-stretch:normal;font-size:0.352777px;font-family:Candara;-inkscape-font-specification:Candara;fill:#fdfdfd;stroke:#ffffff;stroke-width:0.02;stroke-dasharray:none;stroke-opacity:1"
       x="21.761978"
       y="30.727577"
       id="text33"><tspan
         sodipodi:role="line"
         id="tspan33"
         style="font-style:normal;font-variant:normal;font-weight:normal;font-stretch:normal;font-family:Candara;-inkscape-font-specification:Candara;stroke-width:0.02;stroke-dasharray:none;stroke:#ffffff;stroke-opacity:1"
         x="21.761978"
         y="30.727577">OK/EDIT</tspan></text>
    <text
       xml:space="preserve"
       style="font-style:normal;font-variant:normal;font-weight:normal;font-stretch:normal;font-size:0.352777px;font-family:Candara;-inkscape-font-specification:Candara;fill:#fdfdfd;stroke:#ffffff;stroke-width:0.02;stroke-dasharray:none;stroke-opacity:1"
       x="20.179321"
       y="31.966978"
       id="text34"><tspan
         sodipodi:role="line"
         id="tspan34"
         style="font-style:normal;font-variant:normal;font-weight:normal;font-stretch:normal;font-family:Candara;-inkscape-font-specification:Candara;stroke-width:0.02;stroke-dasharray:none;stroke:#ffffff;stroke-opacity:1"
         x="20.179321"
         y="31.966978">LEFT/ALARM</tspan></text>
    <text
       xml:space="preserve"
       style="font-style:normal;font-variant:normal;font-weight:normal;font-stretch:normal;font-size:0.352777px;font-family:Candara;-inkscape-font-specification:Candara;fill:#fdfdfd;stroke:#ffffff;stroke-width:0.02;stroke-dasharray:none;stroke-opacity:1"
       x="22.764944"
       y="31.973083"
       id="text35"><tspan
         sodipodi:role="line"
         id="tspan35"
         style="font-style:normal;font-variant:normal;font-weight:normal;font-stretch:normal;font-family:Candara;-inkscape-font-specification:Candara;stroke-width:0.02;stroke-dasharray:none;stroke:#ffffff;stroke-opacity:1"
         x="22.764944"
         y="31.973083">RIGHT/MENU</tspan></text>
    <text
       xml:space="preserve"
       style="font-style:normal;font-variant:normal;font-weight:normal;font-stretch:normal;font-size:0.282222px;font-family:Candara;-inkscape-font-specification:Candara;fill:#fdfdfd;stroke:#ffffff;stroke-width:0.02;stroke-dasharray:none;stroke-opacity:1"
       x="26.102688"
       y="32.636829"
       id="text36"><tspan
         sodipodi:role="line"
         id="tspan36"
         style="font-style:normal;font-variant:normal;font-weight:normal;font-stretch:normal;font-size:0.282222px;font-family:Candara;-inkscape-font-specification:Candara;stroke:#ffffff;stroke-width:0.02;stroke-dasharray:none;stroke-opacity:1"
         x="26.102688"
         y="32.636829">RESET</tspan></text>
    <text
       xml:space="preserve"
       style="font-style:normal;font-variant:normal;font-weight:normal;font-stretch:normal;font-size:0.352777px;font-family:Candara;-inkscape-font-specification:Candara;fill:#fdfdfd;stroke:#ffffff;stroke-width:0.02;stroke-dasharray:none;stroke-opacity:1"
       x="26.084133"
       y="30.815569"
       id="text37"><tspan
         sodipodi:role="line"
         id="tspan37"
         style="font-style:normal;font-variant:normal;font-weight:normal;font-stretch:normal;font-family:Candara;-inkscape-font-specification:Candara;stroke:#ffffff;stroke-width:0.02;stroke-dasharray:none;stroke-opacity:1"
         x="26.084133"
         y="30.815569">RX</tspan></text>
    <text
       xml:space="preserve"
       style="font-style:normal;font-variant:normal;font-weight:normal;font-stretch:normal;font-size:0.352777px;font-family:Candara;-inkscape-font-specification:Candara;fill:#fdfdfd;stroke:#ffffff;stroke-width:0.02;stroke-dasharray:none;stroke-opacity:1"
       x="27.128635"
       y="34.036572"
       id="text37-9"><tspan
         sodipodi:role="line"
         id="tspan37-0"
         style="font-style:normal;font-variant:normal;font-weight:normal;font-stretch:normal;font-family:Candara;-inkscape-font-specification:Candara;stroke:#ffffff;stroke-width:0.02;stroke-dasharray:none;stroke-opacity:1"
         x="27.128635"
         y="34.036572">OFF</tspan></text>
    <text
       xml:space="preserve"
       style="font-style:normal;font-variant:normal;font-weight:normal;font-stretch:normal;font-size:0.352777px;font-family:Candara;-inkscape-font-specification:Candara;fill:#fdfdfd;stroke:#ffffff;stroke-width:0.02;stroke-dasharray:none;stroke-opacity:1"
       x="27.176899"
       y="35.568249"
       id="text37-96"><tspan
         sodipodi:role="line"
         id="tspan37-2"
         style="font-style:normal;font-variant:normal;font-weight:normal;font-stretch:normal;font-family:Candara;-inkscape-font-specification:Candara;stroke:#ffffff;stroke-width:0.02;stroke-dasharray:none;stroke-opacity:1"
         x="27.176899"
         y="35.568249">ON</tspan></text>
    <text
       xml:space="preserve"
       style="font-style:normal;font-variant:normal;font-weight:normal;font-stretch:normal;font-size:0.352777px;font-family:Candara;-inkscape-font-specification:Candara;fill:#fdfdfd;stroke:#ffffff;stroke-width:0.02;stroke-dasharray:none;stroke-opacity:1"
       x="26.121098"
       y="31.625267"
       id="text38"><tspan
         sodipodi:role="line"
         id="tspan38"
         style="font-style:normal;font-variant:normal;font-weight:normal;font-stretch:normal;font-family:Candara;-inkscape-font-specification:Candara;stroke:#ffffff;stroke-width:0.02;stroke-dasharray:none;stroke-opacity:1"
         x="26.121098"
         y="31.625267">ALARM</tspan></text>
    <text
       xml:space="preserve"
       style="font-style:normal;font-variant:normal;font-weight:bold;font-stretch:normal;font-size:0.705556px;line-height:0;font-family:Calibri;-inkscape-font-specification:'Calibri, Bold';font-variant-ligatures:normal;font-variant-caps:normal;font-variant-numeric:normal;font-variant-east-asian:normal;fill:#fefefe;fill-opacity:1;stroke:#ffffff;stroke-width:0;stroke-dasharray:none;stroke-opacity:1"
       x="22.368788"
       y="24.192904"
       id="text44"><tspan
         sodipodi:role="line"
         id="tspan44"
         style="font-style:normal;font-variant:normal;font-weight:bold;font-stretch:normal;font-size:0.705556px;font-family:Calibri;-inkscape-font-specification:'Calibri, Bold';font-variant-ligatures:normal;font-variant-caps:normal;font-variant-numeric:normal;font-variant-east-asian:normal;fill:#fefefe;fill-opacity:1;stroke:#ffffff;stroke-width:0;stroke-dasharray:none;stroke-opacity:1"
         x="22.368788"
         y="24.192904"><tspan
   style="font-style:normal;font-variant:normal;font-weight:bold;font-stretch:normal;font-size:0.705556px;font-family:Arial;-inkscape-font-specification:'Arial, Bold';font-variant-ligatures:normal;font-variant-caps:normal;font-variant-numeric:normal;font-variant-east-asian:normal"
   id="tspan24">G<tspan
   style="font-style:normal;font-variant:normal;font-weight:bold;font-stretch:normal;font-size:0.811389px;font-family:Arial;-inkscape-font-specification:'Arial, Bold';font-variant-ligatures:normal;font-variant-caps:normal;font-variant-numeric:normal;font-variant-east-asian:normal"
   id="tspan27">Y</tspan>M</tspan> <tspan
   style="font-style:normal;font-variant:normal;font-weight:normal;font-stretch:normal;font-size:0.705556px;font-family:'Segoe Script';-inkscape-font-specification:'Segoe Script, Normal';font-variant-ligatures:normal;font-variant-caps:normal;font-variant-numeric:normal;font-variant-east-asian:normal"
   id="tspan23">Electronics</tspan></tspan></text>
    <text
       xml:space="preserve"
       style="font-style:normal;font-variant:normal;font-weight:bold;font-stretch:normal;font-size:0.705556px;line-height:0;font-family:Calibri;-inkscape-font-specification:'Calibri, Bold';font-variant-ligatures:normal;font-variant-caps:normal;font-variant-numeric:normal;font-variant-east-asian:normal;fill:#fefefe;fill-opacity:1;stroke:#ffffff;stroke-width:0;stroke-dasharray:none;stroke-opacity:1"
       x="22.385664"
       y="37.404209"
       id="text44-2"><tspan
         sodipodi:role="line"
         id="tspan44-3"
         style="font-style:normal;font-variant:normal;font-weight:bold;font-stretch:normal;font-size:0.705556px;font-family:Calibri;-inkscape-font-specification:'Calibri, Bold';font-variant-ligatures:normal;font-variant-caps:normal;font-variant-numeric:normal;font-variant-east-asian:normal;fill:#fefefe;fill-opacity:1;stroke:#ffffff;stroke-width:0;stroke-dasharray:none;stroke-opacity:1"
         x="22.385664"
         y="37.404209"><tspan
   style="font-style:normal;font-variant:normal;font-weight:bold;font-stretch:normal;font-size:0.705556px;font-family:Arial;-inkscape-font-specification:'Arial, Bold';font-variant-ligatures:normal;font-variant-caps:normal;font-variant-numeric:normal;font-variant-east-asian:normal"
   id="tspan24-2">G<tspan
   style="font-style:normal;font-variant:normal;font-weight:bold;font-stretch:normal;font-size:0.811389px;font-family:Arial;-inkscape-font-specification:'Arial, Bold';font-variant-ligatures:normal;font-variant-caps:normal;font-variant-numeric:normal;font-variant-east-asian:normal"
   id="tspan27-2">Y</tspan>M</tspan> <tspan
   style="font-style:normal;font-variant:normal;font-weight:normal;font-stretch:normal;font-size:0.705556px;font-family:'Segoe Script';-inkscape-font-specification:'Segoe Script, Normal';font-variant-ligatures:normal;font-variant-caps:normal;font-variant-numeric:normal;font-variant-east-asian:normal"
   id="tspan23-1">Electronics</tspan></tspan></text>
    <text
       xml:space="preserve"
       style="font-style:normal;font-variant:normal;font-weight:bold;font-stretch:normal;font-size:0.705556px;line-height:0;font-family:Calibri;-inkscape-font-specification:'Calibri, Bold';font-variant-ligatures:normal;font-variant-caps:normal;font-variant-numeric:normal;font-variant-east-asian:normal;fill:#fdfdfd;fill-opacity:1;stroke:#000000;stroke-width:0.0352;stroke-dasharray:none;stroke-opacity:1"
       x="21.982918"
       y="36.154888"
       id="text47"><tspan
         sodipodi:role="line"
         id="tspan47"
         style="stroke-width:0.0352;stroke-dasharray:none"
         x="21.982918"
         y="36.154888" /></text>
    <text
       xml:space="preserve"
       style="font-style:italic;font-variant:normal;font-weight:normal;font-stretch:normal;font-size:0.352778px;line-height:0;font-family:Arial;-inkscape-font-specification:'Arial, Italic';font-variant-ligatures:normal;font-variant-caps:normal;font-variant-numeric:normal;font-variant-east-asian:normal;fill:#ffffff;fill-opacity:1;stroke:#ffffff;stroke-width:0.01;stroke-dasharray:none;stroke-opacity:1"
       x="27.370474"
       y="25.393963"
       id="text49"><tspan
         sodipodi:role="line"
         id="tspan49"
         style="font-style:italic;font-variant:normal;font-weight:normal;font-stretch:normal;font-size:0.352778px;font-family:Arial;-inkscape-font-specification:'Arial, Italic';font-variant-ligatures:normal;font-variant-caps:normal;font-variant-numeric:normal;font-variant-east-asian:normal;fill:#ffffff;fill-opacity:1;stroke:#ffffff;stroke-width:0.01;stroke-dasharray:none;stroke-opacity:1"
         x="27.370474"
         y="25.393963">SMART-WP-1HP-V1</tspan></text>
    <text
       xml:space="preserve"
       style="font-style:normal;font-variant:normal;font-weight:normal;font-stretch:normal;font-size:0.388056px;line-height:0;font-family:Arial;-inkscape-font-specification:'Arial, Normal';font-variant-ligatures:normal;font-variant-caps:normal;font-variant-numeric:normal;font-variant-east-asian:normal;fill:#ffffff;fill-opacity:1;stroke:#ffffff;stroke-width:0.02;stroke-dasharray:none;stroke-opacity:1"
       x="21.1761"
       y="34.7868"
       id="text50"><tspan
         sodipodi:role="line"
         id="tspan50"
         style="font-style:normal;font-variant:normal;font-weight:normal;font-stretch:normal;font-size:0.388056px;font-family:Arial;-inkscape-font-specification:'Arial, Normal';font-variant-ligatures:normal;font-variant-caps:normal;font-variant-numeric:normal;font-variant-east-asian:normal;stroke-width:0.02;stroke:#ffffff;stroke-opacity:1;stroke-dasharray:none;fill:#ffffff;fill-opacity:1"
         x="21.1761"
         y="34.7868">SMART AUTO WATER</tspan><tspan
         sodipodi:role="line"
         style="font-style:normal;font-variant:normal;font-weight:normal;font-stretch:normal;font-size:0.388056px;font-family:Arial;-inkscape-font-specification:'Arial, Normal';font-variant-ligatures:normal;font-variant-caps:normal;font-variant-numeric:normal;font-variant-east-asian:normal;stroke-width:0.02;stroke:#ffffff;stroke-opacity:1;stroke-dasharray:none;fill:#ffffff;fill-opacity:1"
         x="21.1761"
         y="34.7868"
         id="tspan51" /></text>
    <text
       xml:space="preserve"
       style="font-style:normal;font-variant:normal;font-weight:normal;font-stretch:normal;font-size:0.388056px;line-height:0;font-family:Arial;-inkscape-font-specification:'Arial, Normal';font-variant-ligatures:normal;font-variant-caps:normal;font-variant-numeric:normal;font-variant-east-asian:normal;fill:#fefefe;fill-opacity:1;stroke:#ffffff;stroke-width:0.02;stroke-dasharray:none;stroke-opacity:1"
       x="21.187792"
       y="35.348061"
       id="text52"><tspan
         sodipodi:role="line"
         id="tspan52"
         style="font-style:normal;font-variant:normal;font-weight:normal;font-stretch:normal;font-size:0.388056px;font-family:Arial;-inkscape-font-specification:'Arial, Normal';font-variant-ligatures:normal;font-variant-caps:normal;font-variant-numeric:normal;font-variant-east-asian:normal;stroke-width:0.02;stroke:#ffffff;stroke-opacity:1;stroke-dasharray:none;fill:#fefefe;fill-opacity:1"
         x="21.187792"
         y="35.348061">PUMP CONTROLLER</tspan></text>
    <rect
       style="fill:none;fill-opacity:1;stroke:#000000;stroke-width:0.1;stroke-dasharray:none;stroke-opacity:1"
       id="rect1"
       width="10.679"
       height="10.956454"
       x="20.051291"
       y="25.082663"
       clip-path="url(#clipPath140)"
       transform="matrix(0.99994069,0,0,1.0127711,0.0015058,-0.46057653)" />
    <path
       sodipodi:type="spiral"
       style="fill:none;fill-rule:evenodd;stroke:#000000;stroke-width:0.264583"
       id="path9"
       sodipodi:cx="23.339314"
       sodipodi:cy="29.162449"
       sodipodi:expansion="1"
       sodipodi:revolution="3"
       sodipodi:radius="5.0140114"
       sodipodi:argument="-18.209785"
       sodipodi:t0="0"
       d="m 23.339314,29.162449 c 0.201676,0.150085 -0.102812,0.345903 -0.249452,0.3352 -0.397386,-0.029 -0.531552,-0.512879 -0.420949,-0.834104 0.197842,-0.574596 0.905832,-0.742348 1.418756,-0.506697 0.752736,0.345827 0.958415,1.303763 0.592446,2.003408 -0.48778,0.932517 -1.703414,1.176669 -2.58806,0.678195 -1.113238,-0.627279 -1.396042,-2.103874 -0.763944,-3.172713 0.765556,-1.294507 2.504787,-1.616059 3.757365,-0.849692 1.47612,0.903138 1.836483,2.905982 0.93544,4.342017 -1.040289,1.65796 -3.307365,2.057177 -4.926669,1.021189 -1.839955,-1.177155 -2.278059,-3.708881 -1.106937,-5.511321 1.313822,-2.022065 4.110494,-2.49908 6.095973,-1.192686 2.204259,1.450344 2.720203,4.512179 1.278435,6.680625"
       transform="matrix(1.2904144,0,0,1.2857877,2.9350843,-6.4966651)"
       clip-path="url(#clipPath438)" />
    <rect
       style="fill:#ffffff;fill-opacity:1;fill-rule:evenodd;stroke:#000000;stroke-width:0.02"
       id="rect2"
       width="1.2"
       height="1.87"
       x="28.042549"
       y="33.748024" />
  </g>
</svg>
